<svg version="1.1" id="Layer_1" xmlns="http://www.w3.org/2000/svg" xmlns:xlink="http://www.w3.org/1999/xlink" x="0px" y="0px"
	 width="100%" viewBox="0 0 476 370" enable-background="new 0 0 476 370" xml:space="preserve">
<path fill="#393A3A" opacity="1.000000" stroke="none" 
	d="
M253.000000,1.000000 
	C256.361359,1.000000 259.722687,1.000000 263.728760,1.396929 
	C280.468048,2.928635 296.633240,3.454789 312.644226,5.310844 
	C363.276947,11.180374 412.843597,21.981695 460.929382,39.109512 
	C466.177002,40.978657 471.193176,43.497570 476.235840,46.196735 
	C476.112610,48.675903 476.033234,50.673439 476.033142,52.670975 
	C476.028748,143.793274 476.031342,234.915573 475.860046,326.345215 
	C467.492371,329.797394 459.391449,333.217865 451.087982,336.043030 
	C389.796387,356.897064 326.865021,368.754364 261.586060,370.077454 
	C245.393982,370.056091 229.669846,370.101929 213.484268,370.086395 
	C185.530472,369.836731 158.266830,366.859619 131.192444,362.454559 
	C92.642288,356.182404 54.901981,346.552094 18.195553,333.100372 
	C12.665684,331.073822 7.371570,328.403961 1.990355,325.562195 
	C1.999860,259.994080 1.995743,194.895432 1.971045,129.796799 
	C1.960433,101.826904 1.907085,73.857018 2.011908,45.558987 
	C3.294797,44.591579 4.369208,43.730240 5.593378,43.345898 
	C29.332329,35.892761 52.844261,27.557018 76.894646,21.289949 
	C121.303383,9.717878 166.599319,3.414153 212.520828,1.950449 
	C213.356461,1.923813 214.174011,1.329461 215.000000,1.000001 
	C219.689560,1.000000 224.379105,1.000000 229.817200,1.312853 
	C238.043808,1.417137 245.521912,1.208569 253.000000,1.000000 
M280.580902,8.888803 
	C276.423981,8.627307 272.270599,8.265923 268.109619,8.119502 
	C216.998032,6.320938 166.226685,9.220243 115.937248,19.017767 
	C80.298889,25.960928 45.232994,34.937672 11.213173,47.764141 
	C8.793694,48.676353 7.025408,49.293686 7.030285,52.724407 
	C7.156319,141.385254 7.143911,230.046326 7.064921,318.707275 
	C7.062447,321.484650 7.865643,322.806427 10.490151,323.766785 
	C70.430649,345.699921 132.297806,358.617157 195.930939,362.796387 
	C237.084259,365.499207 278.185394,364.152802 319.157288,359.142822 
	C369.397156,352.999573 418.277863,341.274078 465.884064,324.108032 
	C469.053711,322.965149 470.131622,321.622345 470.127258,318.176392 
	C470.015564,230.015488 470.027802,141.854385 470.088531,53.693382 
	C470.090546,50.774155 469.817291,48.903442 466.456299,47.852158 
	C452.662384,43.537624 439.072144,38.558804 425.232178,34.407173 
	C378.334320,20.339025 330.373962,12.105079 280.580902,8.888803 
z"/>
<path fill="#FEFEFE" opacity="1.000000" stroke="none" 
	d="
M476.316681,45.715103 
	C471.193176,43.497570 466.177002,40.978657 460.929382,39.109512 
	C412.843597,21.981695 363.276947,11.180374 312.644226,5.310844 
	C296.633240,3.454789 280.468048,2.928635 264.186707,1.396929 
	C334.879425,1.000000 405.758820,1.000000 477.000000,1.000000 
	C477.000000,15.685581 477.000000,30.374132 476.894104,45.304306 
	C476.631042,45.602325 476.473877,45.658714 476.316681,45.715103 
z"/>
<path fill="#FEFEFE" opacity="1.000000" stroke="none" 
	d="
M214.531342,1.000001 
	C214.174011,1.329461 213.356461,1.923813 212.520828,1.950449 
	C166.599319,3.414153 121.303383,9.717878 76.894646,21.289949 
	C52.844261,27.557018 29.332329,35.892761 5.593378,43.345898 
	C4.369208,43.730240 3.294797,44.591579 1.791188,45.568390 
	C1.431713,45.905941 1.000000,46.000000 1.000000,46.000000 
	C1.000000,31.025377 1.000000,16.050753 1.000000,1.000000 
	C72.020874,1.000000 143.041779,1.000000 214.531342,1.000001 
z"/>
<path fill="#FEFEFE" opacity="1.000000" stroke="none" 
	d="
M262.053955,370.144623 
	C326.865021,368.754364 389.796387,356.897064 451.087982,336.043030 
	C459.391449,333.217865 467.492371,329.797394 476.100342,326.298218 
	C476.513611,325.943909 477.000000,326.000000 477.000000,326.000000 
	C477.000000,340.974731 477.000000,355.949432 477.000000,371.000000 
	C405.645782,371.000000 334.291565,371.000000 262.466431,370.785156 
	C261.995544,370.570343 262.053955,370.144623 262.053955,370.144623 
z"/>
<path fill="#FEFEFE" opacity="1.000000" stroke="none" 
	d="
M1.968390,326.031738 
	C7.371570,328.403961 12.665684,331.073822 18.195553,333.100372 
	C54.901981,346.552094 92.642288,356.182404 131.192444,362.454559 
	C158.266830,366.859619 185.530472,369.836731 213.511475,370.298584 
	C214.000122,370.572113 214.000000,371.000000 214.000000,371.000000 
	C143.120575,371.000000 72.241158,371.000000 1.000000,371.000000 
	C1.000000,356.314423 1.000000,341.625854 1.243255,326.441254 
	C1.486509,325.945190 1.968386,326.031738 1.968390,326.031738 
z"/>
<path fill="#959595" opacity="1.000000" stroke="none" 
	d="
M1.990351,325.562225 
	C1.968386,326.031738 1.486509,325.945190 1.243255,325.972595 
	C1.000000,232.978561 1.000000,139.957138 1.000000,46.467854 
	C1.000000,46.000000 1.431713,45.905941 1.652434,45.896538 
	C1.907085,73.857018 1.960433,101.826904 1.971045,129.796799 
	C1.995743,194.895432 1.999860,259.994080 1.990351,325.562225 
z"/>
<path fill="#898989" opacity="1.000000" stroke="none" 
	d="
M477.000000,325.531342 
	C477.000000,326.000000 476.513611,325.943909 476.273346,325.990906 
	C476.031342,234.915573 476.028748,143.793274 476.033142,52.670975 
	C476.033234,50.673439 476.112610,48.675903 476.235840,46.196739 
	C476.473877,45.658714 476.631042,45.602325 476.894104,45.772964 
	C477.000000,139.020889 477.000000,232.041794 477.000000,325.531342 
z"/>
<path fill="#C8C8C8" opacity="1.000000" stroke="none" 
	d="
M214.468658,371.000000 
	C214.000000,371.000000 214.000122,370.572113 213.972900,370.359924 
	C229.669846,370.101929 245.393982,370.056091 261.586060,370.077454 
	C262.053955,370.144623 261.995544,370.570343 261.997772,370.785156 
	C246.312439,371.000000 230.624878,371.000000 214.468658,371.000000 
z"/>
<path fill="#6C6C6C" opacity="1.000000" stroke="none" 
	d="
M252.531372,1.000000 
	C245.521912,1.208569 238.043808,1.417137 230.282867,1.312853 
	C237.354248,1.000000 244.708496,1.000000 252.531372,1.000000 
z"/>
<path fill="#F4F4F4" opacity="1.000000" stroke="none" 
	d="
M281.055847,8.908798 
	C330.373962,12.105079 378.334320,20.339025 425.232178,34.407173 
	C439.072144,38.558804 452.662384,43.537624 466.456299,47.852158 
	C469.817291,48.903442 470.090546,50.774155 470.088531,53.693382 
	C470.027802,141.854385 470.015564,230.015488 470.127258,318.176392 
	C470.131622,321.622345 469.053711,322.965149 465.884064,324.108032 
	C418.277863,341.274078 369.397156,352.999573 319.157288,359.142822 
	C278.185394,364.152802 237.084259,365.499207 195.930939,362.796387 
	C132.297806,358.617157 70.430649,345.699921 10.490151,323.766785 
	C7.865643,322.806427 7.062447,321.484650 7.064921,318.707275 
	C7.143911,230.046326 7.156319,141.385254 7.030285,52.724407 
	C7.025408,49.293686 8.793694,48.676353 11.213173,47.764141 
	C45.232994,34.937672 80.298889,25.960928 115.937248,19.017767 
	C166.226685,9.220243 216.998032,6.320938 268.109619,8.119502 
	C272.270599,8.265923 276.423981,8.627307 281.055847,8.908798 
M20.534359,56.236366 
	C20.020998,58.400635 19.060787,60.564491 19.058771,62.729237 
	C18.982428,144.700882 19.033731,226.672668 18.892290,308.644135 
	C18.884117,313.380066 20.161144,315.600067 24.828108,317.242096 
	C77.056541,335.618195 130.721695,347.148743 185.931046,351.169952 
	C230.387039,354.407898 274.851501,353.942841 319.130585,348.645508 
	C364.842743,343.176697 409.483246,332.846313 452.912415,317.371246 
	C457.653809,315.681793 459.236938,313.564667 459.223541,308.552765 
	C459.054199,245.241730 459.112335,181.930099 459.112335,118.618607 
	C459.112335,99.625160 459.069275,80.631523 459.154846,61.638454 
	C459.168976,58.511307 458.671844,56.392139 455.206573,55.207367 
	C398.707336,35.890301 340.753143,23.772362 281.118866,20.152298 
	C242.980606,17.837135 204.919235,18.565086 166.871994,22.780073 
	C117.043320,28.300240 68.548195,39.290665 20.534359,56.236366 
z"/>
<path fill="#393939" opacity="1.000000" stroke="none" 
	d="
M20.914745,56.082790 
	C68.548195,39.290665 117.043320,28.300240 166.871994,22.780073 
	C204.919235,18.565086 242.980606,17.837135 281.118866,20.152298 
	C340.753143,23.772362 398.707336,35.890301 455.206573,55.207367 
	C458.671844,56.392139 459.168976,58.511307 459.154846,61.638454 
	C459.069275,80.631523 459.112335,99.625160 459.112335,118.618607 
	C459.112335,181.930099 459.054199,245.241730 459.223541,308.552765 
	C459.236938,313.564667 457.653809,315.681793 452.912415,317.371246 
	C409.483246,332.846313 364.842743,343.176697 319.130585,348.645508 
	C274.851501,353.942841 230.387039,354.407898 185.931046,351.169952 
	C130.721695,347.148743 77.056541,335.618195 24.828108,317.242096 
	C20.161144,315.600067 18.884117,313.380066 18.892290,308.644135 
	C19.033731,226.672668 18.982428,144.700882 19.058771,62.729237 
	C19.060787,60.564491 20.020998,58.400635 20.914745,56.082790 
M25.053328,71.543625 
	C25.053328,151.191147 25.053328,230.838684 25.053328,310.926300 
	C167.811005,358.773712 310.278534,358.677368 452.848267,310.864502 
	C452.848267,227.446472 452.848267,144.477432 452.848267,61.136612 
	C310.230530,13.325521 167.761200,13.245001 25.053328,61.060669 
	C25.053328,64.585594 25.053328,67.574638 25.053328,71.543625 
z"/>
<path fill="#F7F7F7" opacity="1.000000" stroke="none" 
	d="
M25.053328,71.053650 
	C25.053328,67.574638 25.053328,64.585594 25.053328,61.060669 
	C167.761200,13.245001 310.230530,13.325521 452.848267,61.136612 
	C452.848267,144.477432 452.848267,227.446472 452.848267,310.864502 
	C310.278534,358.677368 167.811005,358.773712 25.053328,310.926300 
	C25.053328,230.838684 25.053328,151.191147 25.053328,71.053650 
M294.870544,287.890564 
	C294.592499,286.740356 294.314453,285.590149 294.224945,283.995087 
	C294.233887,283.664276 294.157440,283.354492 294.742065,282.923492 
	C294.060150,281.999054 293.378204,281.074585 292.696289,280.150146 
	C292.437012,281.617035 292.177734,283.083923 291.925903,284.523346 
	C291.925903,284.523346 291.946350,284.533997 291.900513,285.223907 
	C291.931793,285.450409 291.963104,285.676941 291.310272,286.126434 
	C291.497101,288.920868 292.056580,289.311584 294.249603,288.084808 
	C294.249603,288.084808 294.115540,288.099213 294.870544,287.890564 
M145.427490,281.568787 
	C145.289551,281.716675 145.151596,281.864563 144.598129,281.910492 
	C144.598129,281.910492 144.179016,281.824677 144.135223,281.068298 
	C143.405518,279.920685 142.675797,278.773041 141.946091,277.625427 
	C141.277771,278.751648 140.250656,279.811188 140.026108,281.019836 
	C139.698074,282.785583 139.797913,284.673431 139.982162,286.482056 
	C140.287659,289.480957 141.681641,290.241821 144.852478,288.129028 
	C145.095413,288.119385 145.338333,288.109741 145.685043,288.301941 
	C145.685043,288.301941 146.035095,288.520966 146.760284,288.994965 
	C149.734085,289.033844 152.726776,289.270050 155.669830,288.988098 
	C156.523041,288.906342 157.671326,287.444305 157.913742,286.430695 
	C158.340897,284.644806 158.175247,282.717133 158.301926,279.850159 
	C154.898560,280.286285 151.726669,280.692780 148.157379,280.667084 
	C147.387009,281.078979 146.616638,281.490845 145.950546,281.935638 
	C145.950546,281.935638 145.975510,281.829163 145.427490,281.568787 
M183.982376,281.896210 
	C184.315170,283.967316 184.647980,286.038422 185.443405,288.568878 
	C186.339676,288.325897 187.992416,288.131714 188.011749,287.832184 
	C188.157516,285.571991 187.982315,283.291107 187.877655,280.496674 
	C187.578278,280.412262 187.278900,280.327850 186.340454,280.226410 
	C185.915375,280.243103 185.490280,280.259766 184.512619,280.083221 
	C184.366287,280.405792 184.219940,280.728363 183.982376,281.896210 
M206.448181,288.926788 
	C206.773697,288.785614 206.955185,288.538605 207.429611,288.161255 
	C207.429611,288.161255 207.866577,288.185699 208.170227,288.727264 
	C208.942886,288.707245 209.715546,288.687225 210.852203,288.433777 
	C210.852203,288.433777 211.048950,288.048706 211.628525,288.014160 
	C212.010635,288.069824 212.392746,288.125488 213.323502,288.816772 
	C214.934509,288.497711 217.911987,288.252167 217.933762,287.847565 
	C218.070450,285.307648 217.549042,282.732330 216.498749,280.171570 
	C216.249878,280.170044 216.001022,280.168549 215.485062,280.160583 
	C215.485062,280.160583 215.225754,280.225006 214.500656,280.234436 
	C214.259155,280.244629 214.017639,280.254822 213.249222,280.229645 
	C212.869278,280.536407 212.489319,280.843170 211.505600,281.244202 
	C211.306595,281.200745 211.107590,281.157288 210.414642,280.770782 
	C209.516541,281.161072 208.618439,281.551361 207.340424,281.874481 
	C207.340424,281.874481 206.963440,281.956482 206.612045,281.824219 
	C206.612045,281.824219 206.239761,281.872803 205.806671,281.252930 
	C205.449936,283.145569 205.093201,285.038177 204.080750,286.928040 
	C202.828873,287.341003 201.577011,287.753937 200.325134,288.166901 
	C200.460800,288.587616 200.596451,289.008331 200.732117,289.429047 
	C202.166794,289.279236 203.601486,289.129425 205.504044,289.117432 
	C205.504044,289.117432 205.971771,288.979095 206.448181,288.926788 
M225.546112,286.430786 
	C226.355026,286.967255 227.163940,287.503754 228.153976,288.513580 
	C228.449905,288.633423 228.745834,288.753296 229.705917,289.139618 
	C232.602417,288.140381 235.085281,288.129578 236.105240,292.278046 
	C236.788300,290.527618 236.639542,289.001282 237.253891,287.901093 
	C237.622864,287.240387 239.182404,287.244537 240.206879,286.949890 
	C240.114822,286.986877 240.022766,287.023865 239.930161,287.049072 
	C239.433014,285.198364 238.935867,283.347656 238.381104,281.282440 
	C238.860779,281.498077 239.011520,281.525024 239.096954,281.614410 
	C239.207657,281.730225 239.266342,281.895844 239.347427,282.040009 
	C238.573486,282.028351 237.760605,282.165009 237.033737,281.974060 
	C235.528641,281.578705 234.069290,281.009186 232.052612,280.329895 
	C232.052643,280.330109 231.863815,279.167389 231.457245,276.664032 
	C230.610153,278.676727 230.317764,279.371429 229.460220,280.142883 
	C228.967010,280.425537 228.473801,280.708191 227.357178,281.069305 
	C227.151260,281.107513 226.945328,281.145721 226.151718,280.877869 
	C225.086746,281.083649 223.087692,281.349304 223.096466,281.486267 
	C223.234573,283.640839 223.631119,285.778870 224.012619,288.310150 
	C224.157761,288.501740 224.302917,288.693359 224.448044,288.884949 
	C224.481552,288.766785 224.581268,288.592621 224.536987,288.540283 
	C224.354797,288.325043 224.128876,288.146790 224.118088,287.348572 
	C224.154312,286.924896 224.190536,286.501190 224.814331,286.163696 
	C225.200409,286.108459 225.586472,286.053223 225.546112,286.430786 
M328.503693,288.994232 
	C328.678864,288.990479 328.854065,288.986694 329.508087,289.131989 
	C329.667450,289.081604 329.826813,289.031189 330.576141,289.108704 
	C331.056976,288.862000 331.537842,288.615295 332.715607,288.195557 
	C334.175903,289.130432 335.636200,290.065338 338.215332,291.716492 
	C337.858124,287.653534 337.561920,284.284119 337.265686,280.914642 
	C335.526154,281.220276 333.786652,281.525940 332.002045,281.910370 
	C332.002045,281.910370 332.082306,281.952667 331.965027,281.277649 
	C331.009399,280.872742 330.053741,280.467834 328.602905,279.971558 
	C328.435089,279.968719 328.267242,279.965851 327.974030,279.345459 
	C327.833099,279.093384 327.692139,278.841278 327.551178,278.589203 
	C327.277466,279.363770 327.003754,280.138336 326.267761,280.888306 
	C326.267761,280.888306 325.856445,281.100800 325.070679,281.024506 
	C324.216431,280.689545 323.362183,280.354584 321.479431,279.616333 
	C322.065002,283.250458 322.526855,286.116882 323.662903,289.125153 
	C324.115387,289.073029 324.567902,289.020935 325.494934,289.083527 
	C325.494934,289.083527 325.972748,288.983337 326.474609,289.051208 
	C326.642914,289.038086 326.811249,289.024933 327.482269,289.141571 
	C327.647522,289.090088 327.812744,289.038635 328.503693,288.994232 
M311.967346,285.434326 
	C312.177612,286.324036 312.387878,287.213745 312.886536,288.651550 
	C314.794189,288.270599 316.701874,287.889679 318.377197,287.555115 
	C317.407501,285.477051 316.457855,284.079102 316.103333,282.543762 
	C315.452850,279.726410 314.097046,279.968536 311.640015,281.088135 
	C310.559387,281.935272 309.478760,282.782440 307.520508,284.317596 
	C310.160461,284.713013 311.114105,284.855865 311.967346,285.434326 
M280.481354,281.703979 
	C279.669739,280.602844 278.858154,279.501709 277.430817,277.565155 
	C277.430817,281.266510 277.356812,284.050568 277.450439,286.828979 
	C277.556458,289.975769 279.115387,289.460724 281.732758,287.900116 
	C281.503296,285.950195 281.273804,284.000275 280.481354,281.703979 
M271.880585,139.122620 
	C271.940308,134.019302 272.702637,128.806000 271.924377,123.833862 
	C269.820953,110.395546 258.298065,99.409378 244.886200,97.208588 
	C230.087753,94.780251 215.903625,101.764198 208.862915,114.945625 
	C202.331375,127.173805 204.285538,142.941895 213.554657,153.103531 
	C215.118301,154.817734 216.748474,156.522217 218.001785,158.455566 
	C219.550766,160.844955 220.597443,163.120224 217.873871,165.929871 
	C215.376892,168.505798 216.366943,171.379166 219.280945,173.571838 
	C220.454147,174.454605 221.191330,175.895142 222.294296,176.897720 
	C224.207001,178.636322 226.213715,180.278030 228.251740,181.869797 
	C229.493073,182.839310 230.884933,183.613525 232.177200,184.520966 
	C234.481003,186.138687 236.774261,189.087509 239.046478,189.063583 
	C241.314606,189.039719 243.558273,186.061661 245.799179,184.360962 
	C246.843979,183.568024 247.745422,182.301575 248.906189,182.001465 
	C251.923157,181.221420 260.844574,172.817230 261.233185,169.852661 
	C261.356506,168.911835 261.390564,167.543411 260.841675,166.995148 
	C255.774124,161.933228 260.111053,158.594421 262.726685,154.686920 
	C265.924957,149.909058 268.704681,144.850998 271.880585,139.122620 
M361.628174,261.588379 
	C358.336517,258.331604 358.539703,254.195038 358.685333,250.053284 
	C358.755493,248.057602 358.880768,246.036285 358.654938,244.063919 
	C358.272186,240.721741 360.035645,239.630630 362.937347,239.377365 
	C365.894226,239.119278 369.475677,239.092728 369.684265,242.624268 
	C370.054932,248.899933 372.442383,255.668716 366.977325,261.354675 
	C371.523224,261.354675 375.760895,261.354675 378.827057,261.354675 
	C377.925995,258.386627 376.818268,255.703705 376.353088,252.913651 
	C375.947937,250.483414 376.276825,247.932236 376.266022,245.434570 
	C376.221924,235.234756 372.374847,232.534088 362.828705,235.967682 
	C361.773926,236.347076 360.013000,237.164551 359.683167,236.794708 
	C355.388428,231.979004 352.460724,237.347580 348.897339,237.564819 
	C354.150269,241.383072 354.233093,255.426849 348.523346,261.829224 
	C352.973511,261.829224 356.882538,261.829224 361.628174,261.588379 
M228.893356,259.007324 
	C228.131607,259.607819 227.369858,260.208313 226.608124,260.808838 
	C235.889313,261.861084 244.802261,262.013641 253.706070,261.794922 
	C257.976166,261.690033 260.446533,257.299866 259.693024,253.720703 
	C254.755707,255.269272 249.825104,257.138123 244.733459,258.303436 
	C241.121658,259.130096 239.154510,257.096252 239.198700,253.240082 
	C239.267288,247.252808 239.168076,241.263672 239.228195,235.276215 
	C239.273880,230.724182 237.877945,225.608292 243.567245,223.012939 
	C238.383759,223.012939 233.200287,223.012939 229.006256,223.012939 
	C230.218292,225.625580 232.177734,228.007462 232.315994,230.490723 
	C232.740692,238.118347 232.644989,245.791992 232.336670,253.431000 
	C232.263092,255.254272 230.574997,257.012390 228.893356,259.007324 
M100.487526,261.055206 
	C104.400909,261.440643 108.379616,262.457764 112.212173,262.061462 
	C117.780014,261.485809 122.068085,257.065277 122.864143,252.242462 
	C123.745132,246.905090 120.345558,243.927963 116.500282,241.343079 
	C113.191666,239.118973 109.406487,237.453430 106.540504,234.781082 
	C104.973877,233.320282 103.850456,229.954773 104.455414,228.065735 
	C104.905342,226.660782 108.568504,225.348236 110.594696,225.606873 
	C113.544395,225.983414 116.309044,227.809631 119.148277,229.028748 
	C121.767586,224.712631 121.355133,222.906693 116.805779,222.180634 
	C113.460266,221.646683 109.761658,221.668213 106.519745,222.546768 
	C102.118530,223.739502 99.186501,227.074371 98.372147,231.765442 
	C97.567017,236.403275 100.315193,239.295532 103.759674,241.631073 
	C107.197372,243.961975 111.025841,245.797012 114.158836,248.464966 
	C115.881538,249.931961 117.649010,252.804306 117.405373,254.799973 
	C116.980125,258.283264 113.481422,259.341583 110.394989,258.616364 
	C106.617142,257.728699 103.034698,256.009460 99.046150,254.530548 
	C97.763237,256.398346 96.550751,258.629028 100.487526,261.055206 
M307.100037,239.075974 
	C311.325500,242.758713 310.908142,245.782532 305.914978,247.535461 
	C303.565460,248.360260 301.208313,249.166153 298.836273,249.923111 
	C295.016602,251.142059 292.739258,253.326263 293.890289,257.678467 
	C294.797943,261.110535 298.731842,263.360809 302.662720,262.285645 
	C305.009033,261.643829 307.145508,260.234772 309.381561,259.168060 
	C313.269409,263.586487 316.505371,263.682648 321.132843,259.109528 
	C316.150024,259.407288 315.622864,256.523346 315.853088,252.778046 
	C316.067017,249.297165 316.037018,245.776093 315.775421,242.298203 
	C315.508057,238.743591 314.899536,235.309937 310.232513,234.672073 
	C304.689301,233.914444 298.206482,236.029053 296.498260,239.467087 
	C296.778748,239.613617 297.071869,239.907135 297.337708,239.884216 
	C300.316833,239.627365 303.291748,239.321762 307.100037,239.075974 
M288.108154,243.591751 
	C287.532715,237.171631 284.868500,234.615921 278.669098,234.537125 
	C272.268494,234.455811 266.670685,238.730698 265.070404,244.922058 
	C263.248047,251.972641 265.876068,257.855713 272.127075,260.719147 
	C278.601868,263.685120 284.315979,262.631622 287.756958,257.837463 
	C275.617981,258.001892 271.212921,255.427460 271.546692,248.049469 
	C275.686798,248.049469 279.848785,247.909775 283.995850,248.098557 
	C286.762421,248.224487 288.041351,247.163849 288.108154,243.591751 
M202.377960,255.034302 
	C201.298294,257.174988 200.218628,259.315704 199.147095,261.440247 
	C203.378601,261.440247 207.691696,261.440247 210.943466,261.440247 
	C210.097672,258.147919 208.715546,255.107361 208.635483,252.032898 
	C208.356262,241.310883 208.527435,230.577148 208.527435,219.503571 
	C205.106354,220.288635 201.545639,221.105759 199.153168,221.654785 
	C200.367798,224.768906 202.035233,227.191055 202.152969,229.686310 
	C202.536575,237.817566 202.354218,245.975494 202.377960,255.034302 
M137.630981,231.575027 
	C137.835007,227.673233 138.039032,223.771439 138.269257,219.368423 
	C134.157730,220.287140 130.570450,221.088715 128.277481,221.601074 
	C129.480362,224.861115 131.094376,227.420959 131.271988,230.076889 
	C131.703369,236.527222 131.722412,243.034698 131.406357,249.494629 
	C131.208755,253.533096 130.100800,257.527039 129.421890,261.423065 
	C132.500870,261.423065 136.793945,261.423065 140.021393,261.423065 
	C139.173492,258.240540 137.890793,255.388672 137.744461,252.479660 
	C137.411087,245.852432 137.635071,239.197159 137.630981,231.575027 
M191.028595,250.349274 
	C191.028595,240.250244 191.028595,230.151230 191.028595,219.625778 
	C187.857880,220.303879 184.294281,221.066010 180.095154,221.964050 
	C186.679581,226.722641 187.033279,255.877502 180.893753,261.431976 
	C185.788757,261.431976 190.223480,261.431976 194.658203,261.431976 
	C189.875595,259.128632 191.135773,254.959778 191.028595,250.349274 
M336.535126,237.164215 
	C335.697388,237.023239 334.762726,237.067245 334.047577,236.692383 
	C333.233734,236.265854 332.479950,234.820923 331.935760,234.935745 
	C329.161469,235.521164 326.463409,236.467743 323.738647,237.287949 
	C329.841003,240.232651 327.320740,245.278015 327.589264,249.243362 
	C327.881134,253.553589 328.575012,258.200378 323.000977,261.253540 
	C329.423981,261.253540 334.717621,261.253540 341.421173,261.253540 
	C333.766968,257.953949 333.766785,257.953949 333.760773,250.890823 
	C333.759369,249.228256 333.734711,247.565277 333.763550,245.903214 
	C333.850311,240.903519 335.374542,239.671967 340.192413,240.649475 
	C341.275146,240.869125 342.370361,241.027115 344.282715,241.354279 
	C344.118683,239.047699 343.990295,237.242249 343.861877,235.436783 
	C341.626556,235.892883 339.391266,236.348984 336.535126,237.164215 
M167.486084,243.882202 
	C166.579163,249.710327 170.213684,256.477600 163.150482,261.419678 
	C168.348038,261.419678 172.781403,261.419678 177.214752,261.419678 
	C171.930756,258.229126 173.861771,253.296799 173.683548,249.096191 
	C173.488007,244.486984 173.639008,239.863052 173.639008,234.728653 
	C170.373520,235.520828 166.973648,236.345596 163.736099,237.130997 
	C165.170212,239.411407 166.297836,241.204468 167.486084,243.882202 
M146.648178,256.845734 
	C147.872269,257.963776 149.114441,259.062714 150.317047,260.203400 
	C153.784576,263.492432 156.916656,262.411682 159.481781,260.315399 
	C155.908630,257.156830 152.257126,254.369766 149.142365,251.075256 
	C144.111908,245.754440 144.562759,243.766830 151.172745,240.038589 
	C153.446823,238.755936 155.920761,237.827652 158.303375,236.737473 
	C158.206863,236.422638 158.110336,236.107803 158.013824,235.792969 
	C153.831253,235.792969 149.648697,235.792969 145.137878,235.792969 
	C148.311127,242.453003 141.123138,243.446777 138.986206,247.758804 
	C141.312500,250.544281 143.734360,253.444168 146.648178,256.845734 
M165.972275,224.626053 
	C166.775375,227.562531 168.091995,230.090805 171.652664,228.360367 
	C172.823395,227.791397 174.084488,225.745682 173.927292,224.557388 
	C173.757553,223.274277 171.910400,221.203812 170.912262,221.269135 
	C169.296005,221.374908 167.775513,222.944168 165.972275,224.626053 
M255.878311,278.166748 
	C255.472092,281.725189 255.065872,285.283630 254.505905,290.188751 
	C257.453674,288.782745 260.180328,288.321655 260.666748,287.022095 
	C261.188232,285.628815 259.747772,283.374359 258.883209,281.635071 
	C258.335999,280.534271 257.276184,279.688293 255.878311,278.166748 
M245.947769,280.848633 
	C245.966934,282.151184 246.097595,283.463531 245.984131,284.754425 
	C245.657562,288.469574 247.038086,289.933472 250.980225,288.577759 
	C250.077332,285.070557 249.194122,281.639771 248.135986,277.529572 
	C247.395065,278.366180 246.689880,279.162415 245.947769,280.848633 
M188.225082,132.881927 
	C191.782410,132.881927 195.339737,132.881927 198.897064,132.881927 
	C198.905594,132.045685 198.914124,131.209442 198.922653,130.373199 
	C195.375000,130.373199 191.825668,130.328720 188.282944,130.460892 
	C188.010742,130.471024 187.785019,131.726990 188.225082,132.881927 
M281.022766,130.155197 
	C280.757690,131.081589 280.492615,132.007965 280.227539,132.934357 
	C283.743713,132.934357 287.259888,132.934357 290.776062,132.934357 
	C290.753540,131.990753 290.731049,131.047150 290.708527,130.103546 
	C287.770996,130.103546 284.833435,130.103546 281.022766,130.155197 
M271.879883,166.602188 
	C272.928375,167.383560 273.976837,168.164932 275.025330,168.946320 
	C275.492065,168.423126 275.958832,167.899933 276.425568,167.376740 
	C273.679871,164.599747 270.934174,161.822739 268.188507,159.045746 
	C267.618317,159.565872 267.048126,160.085999 266.477936,160.606125 
	C268.110199,162.436829 269.742432,164.267548 271.879883,166.602188 
M205.622681,167.100479 
	C207.538208,164.856079 209.453735,162.611679 211.369263,160.367279 
	C210.826416,159.900986 210.283569,159.434708 209.740707,158.968430 
	C207.352600,161.359802 204.913208,163.704056 202.628159,166.190170 
	C202.258453,166.592392 202.574478,167.624863 202.573532,168.366013 
	C203.422409,168.107498 204.271301,167.848969 205.622681,167.100479 
M202.840622,97.531754 
	C205.159973,99.804237 207.479340,102.076721 209.798691,104.349205 
	C210.414581,103.728348 211.030472,103.107491 211.646362,102.486633 
	C208.955490,99.977318 206.264618,97.468002 203.573746,94.958694 
	C203.183685,95.624275 202.793625,96.289864 202.840622,97.531754 
M267.595734,103.699974 
	C271.668701,102.206169 274.034576,99.181770 275.901062,95.709587 
	C275.339050,95.205330 274.777069,94.701073 274.215057,94.196815 
	C271.852905,97.187263 269.490723,100.177719 267.595734,103.699974 
M269.449493,283.162598 
	C269.809357,286.768036 271.765076,284.192017 273.173798,283.352295 
	C272.137482,283.249603 271.101135,283.146942 269.449493,283.162598 
z"/>
<path fill="#70BEF3" opacity="1.000000" stroke="none" 
	d="
M271.772980,139.518372 
	C268.704681,144.850998 265.924957,149.909058 262.726685,154.686920 
	C260.111053,158.594421 255.774124,161.933228 260.841675,166.995148 
	C261.390564,167.543411 261.356506,168.911835 261.233185,169.852661 
	C260.844574,172.817230 251.923157,181.221420 248.906189,182.001465 
	C247.745422,182.301575 246.843979,183.568024 245.799179,184.360962 
	C243.558273,186.061661 241.314606,189.039719 239.046478,189.063583 
	C236.774261,189.087509 234.481003,186.138687 232.177200,184.520966 
	C230.884933,183.613525 229.493073,182.839310 228.251740,181.869797 
	C226.213715,180.278030 224.207001,178.636322 222.294296,176.897720 
	C221.191330,175.895142 220.454147,174.454605 219.280945,173.571838 
	C216.366943,171.379166 215.376892,168.505798 217.873871,165.929871 
	C220.597443,163.120224 219.550766,160.844955 218.001785,158.455566 
	C216.748474,156.522217 215.118301,154.817734 213.554657,153.103531 
	C204.285538,142.941895 202.331375,127.173805 208.862915,114.945625 
	C215.903625,101.764198 230.087753,94.780251 244.886200,97.208588 
	C258.298065,99.409378 269.820953,110.395546 271.924377,123.833862 
	C272.702637,128.806000 271.940308,134.019302 271.772980,139.518372 
M257.357849,157.044266 
	C258.813263,155.240173 260.183350,153.358734 261.737701,151.644363 
	C273.310791,138.879776 272.582733,120.076553 260.014648,108.141541 
	C248.265457,96.984169 228.650955,97.245857 217.043945,108.714851 
	C205.175842,120.441826 205.014267,139.597900 216.460342,151.989624 
	C218.772247,154.492523 220.751572,157.518509 222.084366,160.644363 
	C223.234116,163.340912 224.738586,163.941818 227.346298,163.890335 
	C233.994080,163.759125 240.673401,163.478226 247.287888,163.965744 
	C252.474152,164.348007 255.952957,163.208405 257.357849,157.044266 
M231.553955,166.286270 
	C228.406403,166.346771 225.236069,166.215820 222.125412,166.586166 
	C221.209915,166.695175 220.463409,168.223541 219.639465,169.101440 
	C220.442093,169.761276 221.238312,170.986572 222.048309,170.995728 
	C233.325470,171.123581 244.604935,171.125412 255.882156,171.003433 
	C256.705963,170.994522 258.146362,169.819458 258.172668,169.142746 
	C258.204742,168.318527 257.208588,167.055542 256.355316,166.693207 
	C255.201920,166.203461 253.761703,166.306610 252.443893,166.300552 
	C245.809082,166.270096 239.174042,166.286850 231.553955,166.286270 
M246.152893,174.139023 
	C240.350555,174.156769 234.542603,174.046524 228.750671,174.301086 
	C227.603027,174.351532 226.516968,175.802658 225.402496,176.607864 
	C226.311966,177.387253 227.205307,178.819641 228.133438,178.842529 
	C235.422516,179.022324 242.719666,178.997726 250.009964,178.837204 
	C250.857346,178.818558 252.279526,177.640900 252.346207,176.902267 
	C252.416473,176.123917 251.341934,174.895187 250.471558,174.471771 
	C249.506439,174.002304 248.206390,174.221390 246.152893,174.139023 
M235.219498,183.906998 
	C236.835175,184.695251 238.442078,186.041611 240.069717,186.067169 
	C241.082779,186.083054 242.127182,184.100937 243.157516,183.015533 
	C242.853134,182.515152 242.548737,182.014786 242.244354,181.514420 
	C239.884598,182.053543 237.524826,182.592651 235.219498,183.906998 
z"/>
<path fill="#404040" opacity="1.000000" stroke="none" 
	d="
M361.209869,261.708801 
	C356.882538,261.829224 352.973511,261.829224 348.523346,261.829224 
	C354.233093,255.426849 354.150269,241.383072 348.897339,237.564819 
	C352.460724,237.347580 355.388428,231.979004 359.683167,236.794708 
	C360.013000,237.164551 361.773926,236.347076 362.828705,235.967682 
	C372.374847,232.534088 376.221924,235.234756 376.266022,245.434570 
	C376.276825,247.932236 375.947937,250.483414 376.353088,252.913651 
	C376.818268,255.703705 377.925995,258.386627 378.827057,261.354675 
	C375.760895,261.354675 371.523224,261.354675 366.977325,261.354675 
	C372.442383,255.668716 370.054932,248.899933 369.684265,242.624268 
	C369.475677,239.092728 365.894226,239.119278 362.937347,239.377365 
	C360.035645,239.630630 358.272186,240.721741 358.654938,244.063919 
	C358.880768,246.036285 358.755493,248.057602 358.685333,250.053284 
	C358.539703,254.195038 358.336517,258.331604 361.209869,261.708801 
z"/>
<path fill="#424242" opacity="1.000000" stroke="none" 
	d="
M229.261414,258.903900 
	C230.574997,257.012390 232.263092,255.254272 232.336670,253.431000 
	C232.644989,245.791992 232.740692,238.118347 232.315994,230.490723 
	C232.177734,228.007462 230.218292,225.625580 229.006256,223.012939 
	C233.200287,223.012939 238.383759,223.012939 243.567245,223.012939 
	C237.877945,225.608292 239.273880,230.724182 239.228195,235.276215 
	C239.168076,241.263672 239.267288,247.252808 239.198700,253.240082 
	C239.154510,257.096252 241.121658,259.130096 244.733459,258.303436 
	C249.825104,257.138123 254.755707,255.269272 259.693024,253.720703 
	C260.446533,257.299866 257.976166,261.690033 253.706070,261.794922 
	C244.802261,262.013641 235.889313,261.861084 226.608124,260.808838 
	C227.369858,260.208313 228.131607,259.607819 229.261414,258.903900 
z"/>
<path fill="#3E3E3E" opacity="1.000000" stroke="none" 
	d="
M100.124863,260.883484 
	C96.550751,258.629028 97.763237,256.398346 99.046150,254.530548 
	C103.034698,256.009460 106.617142,257.728699 110.394989,258.616364 
	C113.481422,259.341583 116.980125,258.283264 117.405373,254.799973 
	C117.649010,252.804306 115.881538,249.931961 114.158836,248.464966 
	C111.025841,245.797012 107.197372,243.961975 103.759674,241.631073 
	C100.315193,239.295532 97.567017,236.403275 98.372147,231.765442 
	C99.186501,227.074371 102.118530,223.739502 106.519745,222.546768 
	C109.761658,221.668213 113.460266,221.646683 116.805779,222.180634 
	C121.355133,222.906693 121.767586,224.712631 119.150436,229.023239 
	C116.309044,227.809631 113.544395,225.983414 110.594696,225.606873 
	C108.568504,225.348236 104.905342,226.660782 104.455414,228.065735 
	C103.850456,229.954773 104.973877,233.320282 106.540504,234.781082 
	C109.406487,237.453430 113.191666,239.118973 116.500282,241.343079 
	C120.345558,243.927963 123.745132,246.905090 122.864143,252.242462 
	C122.068085,257.065277 117.780014,261.485809 112.212173,262.061462 
	C108.379616,262.457764 104.400909,261.440643 100.124863,260.883484 
z"/>
<path fill="#3E3E3E" opacity="1.000000" stroke="none" 
	d="
M306.683899,239.052628 
	C303.291748,239.321762 300.316833,239.627365 297.337708,239.884216 
	C297.071869,239.907135 296.778748,239.613617 296.500427,239.462921 
	C298.206482,236.029053 304.689301,233.914444 310.232513,234.672073 
	C314.899536,235.309937 315.508057,238.743591 315.775421,242.298203 
	C316.037018,245.776093 316.067017,249.297165 315.853088,252.778046 
	C315.622864,256.523346 316.150024,259.407288 321.132843,259.109528 
	C316.505371,263.682648 313.269409,263.586487 309.381561,259.168060 
	C307.145508,260.234772 305.009033,261.643829 302.662720,262.285645 
	C298.731842,263.360809 294.797943,261.110535 293.890289,257.678467 
	C292.739258,253.326263 295.016602,251.142059 298.836273,249.923111 
	C301.208313,249.166153 303.565460,248.360260 305.914978,247.535461 
	C310.908142,245.782532 311.325500,242.758713 306.683899,239.052628 
M303.954651,251.268784 
	C302.739777,252.895920 301.524933,254.523071 300.310059,256.150208 
	C301.980927,256.797241 303.790710,258.215912 305.296326,257.944885 
	C309.604980,257.169312 310.444733,253.988556 309.502075,249.681274 
	C307.789307,250.165070 306.249786,250.599945 303.954651,251.268784 
z"/>
<path fill="#3C3C3C" opacity="1.000000" stroke="none" 
	d="
M288.081146,244.023132 
	C288.041351,247.163849 286.762421,248.224487 283.995850,248.098557 
	C279.848785,247.909775 275.686798,248.049469 271.546692,248.049469 
	C271.212921,255.427460 275.617981,258.001892 287.756958,257.837463 
	C284.315979,262.631622 278.601868,263.685120 272.127075,260.719147 
	C265.876068,257.855713 263.248047,251.972641 265.070404,244.922058 
	C266.670685,238.730698 272.268494,234.455811 278.669098,234.537125 
	C284.868500,234.615921 287.532715,237.171631 288.081146,244.023132 
M282.563477,243.055893 
	C281.670441,239.009949 278.933594,237.767456 275.205841,238.546234 
	C271.836090,239.250214 270.388519,241.491974 270.928192,245.857529 
	C274.974731,245.164597 278.802490,244.509125 282.563477,243.055893 
z"/>
<path fill="#444444" opacity="1.000000" stroke="none" 
	d="
M202.383789,254.578735 
	C202.354218,245.975494 202.536575,237.817566 202.152969,229.686310 
	C202.035233,227.191055 200.367798,224.768906 199.153168,221.654785 
	C201.545639,221.105759 205.106354,220.288635 208.527435,219.503571 
	C208.527435,230.577148 208.356262,241.310883 208.635483,252.032898 
	C208.715546,255.107361 210.097672,258.147919 210.943466,261.440247 
	C207.691696,261.440247 203.378601,261.440247 199.147095,261.440247 
	C200.218628,259.315704 201.298294,257.174988 202.383789,254.578735 
z"/>
<path fill="#444444" opacity="1.000000" stroke="none" 
	d="
M137.631775,232.064148 
	C137.635071,239.197159 137.411087,245.852432 137.744461,252.479660 
	C137.890793,255.388672 139.173492,258.240540 140.021393,261.423065 
	C136.793945,261.423065 132.500870,261.423065 129.421890,261.423065 
	C130.100800,257.527039 131.208755,253.533096 131.406357,249.494629 
	C131.722412,243.034698 131.703369,236.527222 131.271988,230.076889 
	C131.094376,227.420959 129.480362,224.861115 128.277481,221.601074 
	C130.570450,221.088715 134.157730,220.287140 138.269257,219.368423 
	C138.039032,223.771439 137.835007,227.673233 137.631775,232.064148 
z"/>
<path fill="#393A3A" opacity="1.000000" stroke="none" 
	d="
M191.028595,250.824799 
	C191.135773,254.959778 189.875595,259.128632 194.658203,261.431976 
	C190.223480,261.431976 185.788757,261.431976 180.893753,261.431976 
	C187.033279,255.877502 186.679581,226.722641 180.095154,221.964050 
	C184.294281,221.066010 187.857880,220.303879 191.028595,219.625778 
	C191.028595,230.151230 191.028595,240.250244 191.028595,250.824799 
z"/>
<path fill="#414141" opacity="1.000000" stroke="none" 
	d="
M336.845520,236.984650 
	C339.391266,236.348984 341.626556,235.892883 343.861877,235.436798 
	C343.990295,237.242249 344.118683,239.047699 344.282715,241.354279 
	C342.370361,241.027115 341.275146,240.869125 340.192413,240.649475 
	C335.374542,239.671967 333.850311,240.903519 333.763550,245.903214 
	C333.734711,247.565277 333.759369,249.228256 333.760773,250.890823 
	C333.766785,257.953949 333.766968,257.953949 341.421173,261.253540 
	C334.717621,261.253540 329.423981,261.253540 323.000977,261.253540 
	C328.575012,258.200378 327.881134,253.553589 327.589264,249.243362 
	C327.320740,245.278015 329.841003,240.232651 323.738647,237.287949 
	C326.463409,236.467743 329.161469,235.521164 331.935760,234.935745 
	C332.479950,234.820923 333.233734,236.265854 334.047577,236.692383 
	C334.762726,237.067245 335.697388,237.023239 336.845520,236.984650 
z"/>
<path fill="#444444" opacity="1.000000" stroke="none" 
	d="
M167.455780,243.439850 
	C166.297836,241.204468 165.170212,239.411407 163.736099,237.130997 
	C166.973648,236.345596 170.373520,235.520828 173.639008,234.728653 
	C173.639008,239.863052 173.488007,244.486984 173.683548,249.096191 
	C173.861771,253.296799 171.930756,258.229126 177.214752,261.419678 
	C172.781403,261.419678 168.348038,261.419678 163.150482,261.419678 
	C170.213684,256.477600 166.579163,249.710327 167.455780,243.439850 
z"/>
<path fill="#424242" opacity="1.000000" stroke="none" 
	d="
M146.402191,256.594910 
	C143.734360,253.444168 141.312500,250.544281 138.986206,247.758804 
	C141.123138,243.446777 148.311127,242.453003 145.137878,235.792969 
	C149.648697,235.792969 153.831253,235.792969 158.013824,235.792969 
	C158.110336,236.107803 158.206863,236.422638 158.303375,236.737473 
	C155.920761,237.827652 153.446823,238.755936 151.172745,240.038589 
	C144.562759,243.766830 144.111908,245.754440 149.142365,251.075256 
	C152.257126,254.369766 155.908630,257.156830 159.481781,260.315399 
	C156.916656,262.411682 153.784576,263.492432 150.317047,260.203400 
	C149.114441,259.062714 147.872269,257.963776 146.402191,256.594910 
z"/>
<path fill="#444444" opacity="1.000000" stroke="none" 
	d="
M230.025391,280.066162 
	C230.317764,279.371429 230.610153,278.676727 231.457245,276.664032 
	C231.863815,279.167389 232.052643,280.330109 232.052612,280.329895 
	C234.069290,281.009186 235.528641,281.578705 237.033737,281.974060 
	C237.760605,282.165009 238.573486,282.028351 239.347427,282.040009 
	C239.266342,281.895844 239.207657,281.730225 239.096954,281.614410 
	C239.011520,281.525024 238.860779,281.498077 238.381104,281.282440 
	C238.935867,283.347656 239.433014,285.198364 239.930435,287.054993 
	C240.022766,287.023865 240.114822,286.986877 240.206879,286.949890 
	C239.182404,287.244537 237.622864,287.240387 237.253891,287.901093 
	C236.639542,289.001282 236.788300,290.527618 236.105240,292.278046 
	C235.085281,288.129578 232.602417,288.140381 229.618439,288.743958 
	C229.695770,285.587585 229.860580,282.826874 230.025391,280.066162 
z"/>
<path fill="#393A3A" opacity="1.000000" stroke="none" 
	d="
M148.554764,281.099243 
	C151.726669,280.692780 154.898560,280.286285 158.301926,279.850159 
	C158.175247,282.717133 158.340897,284.644806 157.913742,286.430695 
	C157.671326,287.444305 156.523041,288.906342 155.669830,288.988098 
	C152.726776,289.270050 149.734085,289.033844 146.419891,288.768158 
	C146.079514,288.541351 146.127411,288.551300 146.141556,288.427185 
	C146.155701,288.303040 146.214844,288.060272 146.475372,288.006500 
	C146.908325,287.911255 147.080750,287.869812 147.464691,287.646301 
	C147.497330,286.669800 147.318481,285.875305 146.904388,285.058411 
	C146.669128,285.036011 146.196701,285.021606 146.296387,284.715118 
	C146.934906,283.597290 147.473740,282.785980 148.086578,281.819153 
	C148.277466,281.465363 148.408859,281.277252 148.554764,281.099243 
z"/>
<path fill="#4B4B4B" opacity="1.000000" stroke="none" 
	d="
M332.047119,281.831604 
	C333.786652,281.525940 335.526154,281.220276 337.265686,280.914673 
	C337.561920,284.284119 337.858124,287.653534 338.215332,291.716492 
	C335.636200,290.065338 334.175903,289.130432 332.292053,287.819214 
	C331.928040,285.572449 331.987579,283.702026 332.047119,281.831604 
z"/>
<path fill="#414141" opacity="1.000000" stroke="none" 
	d="
M166.093430,224.260773 
	C167.775513,222.944168 169.296005,221.374908 170.912262,221.269135 
	C171.910400,221.203812 173.757553,223.274277 173.927292,224.557388 
	C174.084488,225.745682 172.823395,227.791397 171.652664,228.360367 
	C168.091995,230.090805 166.775375,227.562531 166.093430,224.260773 
z"/>
<path fill="#3C3C3C" opacity="1.000000" stroke="none" 
	d="
M256.162292,278.447388 
	C257.276184,279.688293 258.335999,280.534271 258.883209,281.635071 
	C259.747772,283.374359 261.188232,285.628815 260.666748,287.022095 
	C260.180328,288.321655 257.453674,288.782745 254.505905,290.188751 
	C255.065872,285.283630 255.472092,281.725189 256.162292,278.447388 
z"/>
<path fill="#545454" opacity="1.000000" stroke="none" 
	d="
M144.123169,288.135712 
	C141.681641,290.241821 140.287659,289.480957 139.982162,286.482056 
	C139.797913,284.673431 139.698074,282.785583 140.026108,281.019836 
	C140.250656,279.811188 141.277771,278.751648 141.946091,277.625427 
	C142.675797,278.773041 143.405518,279.920685 144.117905,281.896301 
	C144.108109,284.528137 144.115646,286.331909 144.123169,288.135712 
z"/>
<path fill="#545454" opacity="1.000000" stroke="none" 
	d="
M245.966248,280.403625 
	C246.689880,279.162415 247.395065,278.366180 248.135986,277.529572 
	C249.194122,281.639771 250.077332,285.070557 250.980225,288.577759 
	C247.038086,289.933472 245.657562,288.469574 245.984131,284.754425 
	C246.097595,283.463531 245.966934,282.151184 245.966248,280.403625 
z"/>
<path fill="#959595" opacity="1.000000" stroke="none" 
	d="
M280.920685,288.072784 
	C279.115387,289.460724 277.556458,289.975769 277.450439,286.828979 
	C277.356812,284.050568 277.430817,281.266510 277.430817,277.565155 
	C278.858154,279.501709 279.669739,280.602844 280.749817,282.306976 
	C280.985748,284.630920 280.953217,286.351837 280.920685,288.072784 
z"/>
<path fill="#72BFF3" opacity="1.000000" stroke="none" 
	d="
M187.881378,132.642914 
	C187.785019,131.726990 188.010742,130.471024 188.282944,130.460892 
	C191.825668,130.328720 195.375000,130.373199 198.922653,130.373199 
	C198.914124,131.209442 198.905594,132.045685 198.897064,132.881927 
	C195.339737,132.881927 191.782410,132.881927 187.881378,132.642914 
z"/>
<path fill="#72BFF3" opacity="1.000000" stroke="none" 
	d="
M281.459351,130.129364 
	C284.833435,130.103546 287.770996,130.103546 290.708527,130.103546 
	C290.731049,131.047150 290.753540,131.990753 290.776062,132.934357 
	C287.259888,132.934357 283.743713,132.934357 280.227539,132.934357 
	C280.492615,132.007965 280.757690,131.081589 281.459351,130.129364 
z"/>
<path fill="#72BFF3" opacity="1.000000" stroke="none" 
	d="
M271.627289,166.350220 
	C269.742432,164.267548 268.110199,162.436829 266.477936,160.606125 
	C267.048126,160.085999 267.618317,159.565872 268.188507,159.045746 
	C270.934174,161.822739 273.679871,164.599747 276.425568,167.376740 
	C275.958832,167.899933 275.492065,168.423126 275.025330,168.946320 
	C273.976837,168.164932 272.928375,167.383560 271.627289,166.350220 
z"/>
<path fill="#72BFF3" opacity="1.000000" stroke="none" 
	d="
M205.371429,167.345459 
	C204.271301,167.848969 203.422409,168.107498 202.573532,168.366013 
	C202.574478,167.624863 202.258453,166.592392 202.628159,166.190170 
	C204.913208,163.704056 207.352600,161.359802 209.740707,158.968430 
	C210.283569,159.434708 210.826416,159.900986 211.369263,160.367279 
	C209.453735,162.611679 207.538208,164.856079 205.371429,167.345459 
z"/>
<path fill="#70BEF3" opacity="1.000000" stroke="none" 
	d="
M202.622101,97.243607 
	C202.793625,96.289864 203.183685,95.624275 203.573746,94.958694 
	C206.264618,97.468002 208.955490,99.977318 211.646362,102.486633 
	C211.030472,103.107491 210.414581,103.728348 209.798691,104.349205 
	C207.479340,102.076721 205.159973,99.804237 202.622101,97.243607 
z"/>
<path fill="#70BEF3" opacity="1.000000" stroke="none" 
	d="
M267.362122,103.434067 
	C269.490723,100.177719 271.852905,97.187263 274.215057,94.196815 
	C274.777069,94.701073 275.339050,95.205330 275.901062,95.709587 
	C274.034576,99.181770 271.668701,102.206169 267.362122,103.434067 
z"/>
<path fill="#444444" opacity="1.000000" stroke="none" 
	d="
M312.246796,281.279877 
	C314.097046,279.968536 315.452850,279.726410 316.103333,282.543762 
	C316.457855,284.079102 317.407501,285.477051 318.377197,287.555115 
	C316.701874,287.889679 314.794189,288.270599 313.101837,288.271423 
	C313.834412,287.398773 314.351654,286.906281 314.868927,286.413757 
	C314.161896,285.930237 313.454895,285.446686 312.901367,284.699371 
	C313.664886,283.871155 314.274933,283.306732 314.503662,283.095123 
	C313.566254,282.341156 312.906525,281.810516 312.246796,281.279877 
z"/>
<path fill="#444444" opacity="1.000000" stroke="none" 
	d="
M223.968292,287.920685 
	C223.631119,285.778870 223.234573,283.640839 223.096466,281.486267 
	C223.087692,281.349304 225.086746,281.083649 226.487305,281.394684 
	C225.957535,283.300171 225.092163,284.688843 224.226776,286.077515 
	C224.190536,286.501190 224.154312,286.924896 224.049820,287.670471 
	C223.981552,287.992340 223.968292,287.920685 223.968292,287.920685 
z"/>
<path fill="#545454" opacity="1.000000" stroke="none" 
	d="
M229.742798,280.104523 
	C229.860580,282.826874 229.695770,285.587585 229.286362,288.610718 
	C228.745834,288.753296 228.449905,288.633423 228.083344,287.909149 
	C227.945877,286.819489 227.879059,286.334259 227.807968,285.443695 
	C227.862671,283.689209 227.921646,282.340027 227.980606,280.990875 
	C228.473801,280.708191 228.967010,280.425537 229.742798,280.104523 
z"/>
<path fill="#6C6C6C" opacity="1.000000" stroke="none" 
	d="
M185.065201,280.276459 
	C185.490280,280.259766 185.915375,280.243103 186.789978,280.391022 
	C187.445007,280.734100 187.667633,280.887787 187.907364,281.016663 
	C187.982315,283.291107 188.157516,285.571991 188.011749,287.832184 
	C187.992416,288.131714 186.339676,288.325897 185.231873,288.034973 
	C185.047775,287.299622 185.075211,287.098206 185.332016,286.651978 
	C185.383957,284.948456 185.206512,283.489777 184.987564,281.846008 
	C184.946060,281.660950 184.958725,281.281830 184.988190,281.030792 
	C185.033508,280.612000 185.049347,280.444214 185.065201,280.276459 
z"/>
<path fill="#3C3C3C" opacity="1.000000" stroke="none" 
	d="
M217.245316,280.168701 
	C217.549042,282.732330 218.070450,285.307648 217.933762,287.847565 
	C217.911987,288.252167 214.934509,288.497711 213.100266,288.204285 
	C212.899979,287.393768 212.922913,287.195709 213.191101,287.006348 
	C213.436371,287.015045 213.927139,287.023193 214.221680,287.079468 
	C214.752731,284.832153 214.989243,282.528564 215.225754,280.225006 
	C215.225754,280.225006 215.485062,280.160583 215.686188,280.564636 
	C216.002762,282.928070 216.118225,284.887421 216.233688,286.846771 
	C216.420380,286.842041 216.607056,286.837341 216.793747,286.832611 
	C216.944275,284.611298 217.094803,282.390015 217.245316,280.168701 
z"/>
<path fill="#444444" opacity="1.000000" stroke="none" 
	d="
M322.988708,288.983337 
	C322.526855,286.116882 322.065002,283.250458 321.479431,279.616333 
	C323.362183,280.354584 324.216431,280.689545 325.494141,281.498596 
	C325.936005,284.309540 325.954376,286.646454 325.972748,288.983337 
	C325.972748,288.983337 325.494934,289.083527 325.235718,288.608643 
	C324.786957,286.298553 324.597443,284.463348 324.407928,282.628113 
	C323.934875,282.677429 323.461792,282.726746 322.988739,282.776062 
	C322.988739,284.845154 322.988739,286.914246 322.988708,288.983337 
z"/>
<path fill="#ADADAD" opacity="1.000000" stroke="none" 
	d="
M311.943420,281.184021 
	C312.906525,281.810516 313.566254,282.341156 314.503662,283.095123 
	C314.274933,283.306732 313.664886,283.871155 312.731232,284.705597 
	C312.407623,284.975616 312.067749,284.998718 312.067749,284.998718 
	C311.114105,284.855865 310.160461,284.713013 307.520508,284.317596 
	C309.478760,282.782440 310.559387,281.935272 311.943420,281.184021 
z"/>
<path fill="#545454" opacity="1.000000" stroke="none" 
	d="
M213.927139,287.023193 
	C213.927139,287.023193 213.436371,287.015045 212.984283,286.702972 
	C212.391251,284.643921 212.250320,282.896942 212.109375,281.149963 
	C212.489319,280.843170 212.869278,280.536407 213.555786,280.666138 
	C213.883957,283.076172 213.905548,285.049683 213.927139,287.023193 
z"/>
<path fill="#898989" opacity="1.000000" stroke="none" 
	d="
M332.024597,281.870972 
	C331.987579,283.702026 331.928040,285.572449 331.943604,287.905731 
	C331.537842,288.615295 331.056976,288.862000 330.303680,288.621582 
	C330.714905,286.073883 331.398621,284.013275 332.082336,281.952667 
	C332.082306,281.952667 332.002045,281.910370 332.024597,281.870972 
z"/>
<path fill="#898989" opacity="1.000000" stroke="none" 
	d="
M323.325806,289.054260 
	C322.988739,286.914246 322.988739,284.845154 322.988739,282.776062 
	C323.461792,282.726746 323.934875,282.677429 324.407928,282.628113 
	C324.597443,284.463348 324.786957,286.298553 324.998413,288.551331 
	C324.567902,289.020935 324.115387,289.073029 323.325806,289.054260 
z"/>
<path fill="#3E3E3E" opacity="1.000000" stroke="none" 
	d="
M332.023682,281.615173 
	C331.398621,284.013275 330.714905,286.073883 330.008698,288.557617 
	C329.826813,289.031189 329.667450,289.081604 329.253204,288.611053 
	C329.031586,285.414398 329.064850,282.738647 329.098114,280.062927 
	C330.053741,280.467834 331.009399,280.872742 332.023682,281.615173 
z"/>
<path fill="#ADADAD" opacity="1.000000" stroke="none" 
	d="
M269.757141,283.103424 
	C271.101135,283.146942 272.137482,283.249603 273.173798,283.352295 
	C271.765076,284.192017 269.809357,286.768036 269.757141,283.103424 
z"/>
<path fill="#959595" opacity="1.000000" stroke="none" 
	d="
M144.487823,288.132385 
	C144.115646,286.331909 144.108109,284.528137 144.139801,282.274506 
	C144.179016,281.824677 144.598129,281.910492 144.956848,282.020386 
	C145.315552,282.130310 145.726624,282.208374 145.726624,282.208374 
	C145.726624,282.208374 145.975510,281.829163 145.975510,281.829163 
	C145.975510,281.829163 145.950546,281.935638 146.252991,282.013672 
	C147.041138,282.052704 147.526855,282.013672 148.012573,281.974640 
	C147.473740,282.785980 146.934906,283.597290 146.094070,284.915375 
	C145.932999,286.301514 146.073929,287.180878 146.214844,288.060272 
	C146.214844,288.060272 146.155701,288.303040 145.914093,288.424377 
	C145.672501,288.545685 145.581253,288.100128 145.581253,288.100128 
	C145.338333,288.109741 145.095413,288.119385 144.487823,288.132385 
z"/>
<path fill="#6C6C6C" opacity="1.000000" stroke="none" 
	d="
M312.017548,285.216522 
	C312.067749,284.998718 312.407623,284.975616 312.577759,284.969391 
	C313.454895,285.446686 314.161896,285.930237 314.868927,286.413757 
	C314.351654,286.906281 313.834412,287.398773 312.957642,287.997375 
	C312.387878,287.213745 312.177612,286.324036 312.017548,285.216522 
z"/>
<path fill="#414141" opacity="1.000000" stroke="none" 
	d="
M326.730042,280.912903 
	C327.003754,280.138336 327.277466,279.363770 327.551178,278.589203 
	C327.692139,278.841278 327.833099,279.093384 327.959259,280.101379 
	C327.955658,283.567230 327.966827,286.277191 327.977997,288.987152 
	C327.812744,289.038635 327.647522,289.090088 327.199768,288.628021 
	C326.854889,285.713959 326.792480,283.313416 326.730042,280.912903 
z"/>
<path fill="#C8C8C8" opacity="1.000000" stroke="none" 
	d="
M205.036163,288.979614 
	C203.601486,289.129425 202.166794,289.279236 200.732117,289.429047 
	C200.596451,289.008331 200.460800,288.587616 200.325134,288.166901 
	C201.577011,287.753937 202.828873,287.341003 204.517380,287.259674 
	C204.981400,288.054077 205.008789,288.516846 205.036163,288.979614 
z"/>
<path fill="#6C6C6C" opacity="1.000000" stroke="none" 
	d="
M206.963440,281.956482 
	C206.963440,281.956482 207.340424,281.874481 207.874603,281.943604 
	C208.638794,282.030975 208.868774,282.049225 209.049179,282.478241 
	C208.976929,284.268250 208.954254,285.647491 208.713806,287.178406 
	C208.286209,287.615295 208.076401,287.900513 207.866577,288.185699 
	C207.866577,288.185699 207.429611,288.161255 207.203125,287.727020 
	C206.972244,285.514008 206.967850,283.735260 206.963440,281.956482 
z"/>
<path fill="#C8C8C8" opacity="1.000000" stroke="none" 
	d="
M227.668884,281.030090 
	C227.921646,282.340027 227.862671,283.689209 227.509521,285.534088 
	C226.801086,286.019196 226.386810,286.008575 225.972549,285.997986 
	C225.586472,286.053223 225.200409,286.108459 224.520554,286.120605 
	C225.092163,284.688843 225.957535,283.300171 226.781158,281.547729 
	C226.945328,281.145721 227.151260,281.107513 227.668884,281.030090 
z"/>
<path fill="#404040" opacity="1.000000" stroke="none" 
	d="
M209.098755,282.067444 
	C208.868774,282.049225 208.638794,282.030975 208.064575,281.977173 
	C208.618439,281.551361 209.516541,281.161072 210.683640,281.374512 
	C210.984741,284.001740 211.016846,286.025238 211.048950,288.048706 
	C211.048950,288.048706 210.852203,288.433777 210.485687,288.309814 
	C209.993134,288.027771 209.867096,287.869690 209.809052,287.331421 
	C209.617615,285.323334 209.358185,283.695374 209.098755,282.067444 
z"/>
<path fill="#414141" opacity="1.000000" stroke="none" 
	d="
M291.918457,284.550812 
	C292.177734,283.083923 292.437012,281.617035 292.696289,280.150146 
	C293.378204,281.074585 294.060150,281.999054 294.227905,282.680725 
	C293.115326,283.142242 292.516907,283.846527 291.918457,284.550812 
z"/>
<path fill="#C8C8C8" opacity="1.000000" stroke="none" 
	d="
M328.240845,288.990692 
	C327.966827,286.277191 327.955658,283.567230 328.021973,280.410156 
	C328.267242,279.965851 328.435089,279.968719 328.850525,280.017242 
	C329.064850,282.738647 329.031586,285.414398 329.013794,288.536530 
	C328.854065,288.986694 328.678864,288.990479 328.240845,288.990692 
z"/>
<path fill="#C8C8C8" opacity="1.000000" stroke="none" 
	d="
M216.872040,280.170135 
	C217.094803,282.390015 216.944275,284.611298 216.793747,286.832611 
	C216.607056,286.837341 216.420380,286.842041 216.233688,286.846771 
	C216.118225,284.887421 216.002762,282.928070 215.819733,280.567902 
	C216.001022,280.168549 216.249878,280.170044 216.872040,280.170135 
z"/>
<path fill="#ADADAD" opacity="1.000000" stroke="none" 
	d="
M214.221680,287.079468 
	C213.905548,285.049683 213.883957,283.076172 213.819244,280.683838 
	C214.017639,280.254822 214.259155,280.244629 214.863205,280.229736 
	C214.989243,282.528564 214.752731,284.832153 214.221680,287.079468 
z"/>
<path fill="#C8C8C8" opacity="1.000000" stroke="none" 
	d="
M326.498901,280.900604 
	C326.792480,283.313416 326.854889,285.713959 326.948425,288.563110 
	C326.811249,289.024933 326.642914,289.038086 326.223694,289.017273 
	C325.954376,286.646454 325.936005,284.309540 325.887024,281.536743 
	C325.856445,281.100800 326.267761,280.888306 326.498901,280.900604 
z"/>
<path fill="#393939" opacity="1.000000" stroke="none" 
	d="
M205.270111,289.048523 
	C205.008789,288.516846 204.981400,288.054077 204.845245,287.261047 
	C205.093201,285.038177 205.449936,283.145569 205.940933,282.001770 
	C206.040726,284.826752 206.006256,286.902924 205.971771,288.979095 
	C205.971771,288.979095 205.504044,289.117432 205.270111,289.048523 
z"/>
<path fill="#959595" opacity="1.000000" stroke="none" 
	d="
M211.338745,288.031433 
	C211.016846,286.025238 210.984741,284.001740 210.930603,281.546051 
	C211.107590,281.157288 211.306595,281.200745 211.807495,281.197083 
	C212.250320,282.896942 212.391251,284.643921 212.739014,286.694275 
	C212.922913,287.195709 212.899979,287.393768 212.825943,287.886475 
	C212.392746,288.125488 212.010635,288.069824 211.338745,288.031433 
z"/>
<path fill="#393939" opacity="1.000000" stroke="none" 
	d="
M185.102631,286.896790 
	C185.075211,287.098206 185.047775,287.299622 185.000549,287.805298 
	C184.647980,286.038422 184.315170,283.967316 184.267624,281.460938 
	C184.552872,281.025665 184.958725,281.281830 184.958725,281.281830 
	C184.958725,281.281830 184.946060,281.660950 184.974121,282.252075 
	C185.035675,284.194427 185.069153,285.545593 185.102631,286.896790 
z"/>
<path fill="#ADADAD" opacity="1.000000" stroke="none" 
	d="
M206.209976,288.952942 
	C206.006256,286.902924 206.040726,284.826752 206.157471,282.311707 
	C206.239761,281.872803 206.612045,281.824219 206.787750,281.890350 
	C206.967850,283.735260 206.972244,285.514008 206.984650,287.739288 
	C206.955185,288.538605 206.773697,288.785614 206.209976,288.952942 
z"/>
<path fill="#393939" opacity="1.000000" stroke="none" 
	d="
M281.326721,287.986450 
	C280.953217,286.351837 280.985748,284.630920 281.031311,282.480164 
	C281.273804,284.000275 281.503296,285.950195 281.326721,287.986450 
z"/>
<path fill="#C8C8C8" opacity="1.000000" stroke="none" 
	d="
M291.922180,284.537079 
	C292.516907,283.846527 293.115326,283.142242 293.854675,282.751892 
	C294.157440,283.354492 294.233887,283.664276 294.031799,284.305481 
	C293.838623,284.615845 293.944458,284.858246 293.546112,284.603333 
	C292.913422,284.559326 292.679108,284.770264 292.322418,284.866882 
	C292.200073,284.752563 291.946350,284.533997 291.946350,284.533997 
	C291.946350,284.533997 291.925903,284.523346 291.922180,284.537079 
z"/>
<path fill="#444444" opacity="1.000000" stroke="none" 
	d="
M148.086578,281.819153 
	C147.526855,282.013672 147.041138,282.052704 146.200836,281.997223 
	C146.616638,281.490845 147.387009,281.078979 148.356079,280.883179 
	C148.408859,281.277252 148.277466,281.465363 148.086578,281.819153 
z"/>
<path fill="#898989" opacity="1.000000" stroke="none" 
	d="
M225.759338,286.214355 
	C226.386810,286.008575 226.801086,286.019196 227.513794,285.939423 
	C227.879059,286.334259 227.945877,286.819489 227.992767,287.672485 
	C227.163940,287.503754 226.355026,286.967255 225.759338,286.214355 
z"/>
<path fill="#4B4B4B" opacity="1.000000" stroke="none" 
	d="
M294.295807,288.211487 
	C292.056580,289.311584 291.497101,288.920868 291.810425,286.308411 
	C292.972321,287.064087 293.634064,287.637787 294.295807,288.211487 
z"/>
<path fill="#ADADAD" opacity="1.000000" stroke="none" 
	d="
M294.272705,288.148132 
	C293.634064,287.637787 292.972321,287.064087 292.152496,286.196960 
	C291.963104,285.676941 291.931793,285.450409 291.923431,284.878967 
	C291.946350,284.533997 292.200073,284.752563 292.570251,285.071167 
	C293.276489,285.649231 293.612549,285.908661 293.918762,286.497894 
	C293.964417,287.251526 294.039978,287.675385 294.115540,288.099213 
	C294.115540,288.099213 294.249603,288.084808 294.272705,288.148132 
z"/>
<path fill="#404040" opacity="1.000000" stroke="none" 
	d="
M208.018402,288.456482 
	C208.076401,287.900513 208.286209,287.615295 208.841644,287.302673 
	C209.327789,287.476624 209.512390,287.622070 209.741074,287.711578 
	C209.867096,287.869690 209.993134,288.027771 210.303680,288.426544 
	C209.715546,288.687225 208.942886,288.707245 208.018402,288.456482 
z"/>
<path fill="#4B4B4B" opacity="1.000000" stroke="none" 
	d="
M294.493042,287.994873 
	C294.039978,287.675385 293.964417,287.251526 293.924072,286.170349 
	C293.954346,285.294769 293.949402,285.076508 293.944458,284.858246 
	C293.944458,284.858246 293.838623,284.615845 293.937500,284.527893 
	C294.314453,285.590149 294.592499,286.740356 294.493042,287.994873 
z"/>
<path fill="#C8C8C8" opacity="1.000000" stroke="none" 
	d="
M223.950287,287.973633 
	C224.128876,288.146790 224.354797,288.325043 224.536987,288.540283 
	C224.581268,288.592621 224.481552,288.766785 224.448059,288.884949 
	C224.302917,288.693359 224.157761,288.501740 223.990448,288.115417 
	C223.968292,287.920685 223.981552,287.992340 223.950287,287.973633 
z"/>
<path fill="#444444" opacity="1.000000" stroke="none" 
	d="
M145.633148,288.201050 
	C145.581253,288.100128 145.672501,288.545685 145.899963,288.548492 
	C146.127411,288.551300 146.079514,288.541351 146.057312,288.531158 
	C146.035095,288.520966 145.685043,288.301941 145.633148,288.201050 
z"/>
<path fill="#898989" opacity="1.000000" stroke="none" 
	d="
M184.988190,281.030792 
	C184.958725,281.281830 184.552872,281.025665 184.313232,281.038300 
	C184.219940,280.728363 184.366287,280.405792 184.788910,280.179840 
	C185.049347,280.444214 185.033508,280.612000 184.988190,281.030792 
z"/>
<path fill="#898989" opacity="1.000000" stroke="none" 
	d="
M187.892517,280.756653 
	C187.667633,280.887787 187.445007,280.734100 187.109497,280.399536 
	C187.278900,280.327850 187.578278,280.412262 187.892517,280.756653 
z"/>
<path fill="#444444" opacity="1.000000" stroke="none" 
	d="
M145.701508,281.698975 
	C145.975510,281.829163 145.726624,282.208374 145.726624,282.208374 
	C145.726624,282.208374 145.315552,282.130310 145.164581,282.071381 
	C145.151596,281.864563 145.289551,281.716675 145.701508,281.698975 
z"/>
<path fill="#F4F7F9" opacity="1.000000" stroke="none" 
	d="
M257.186157,157.378937 
	C255.952957,163.208405 252.474152,164.348007 247.287888,163.965744 
	C240.673401,163.478226 233.994080,163.759125 227.346298,163.890335 
	C224.738586,163.941818 223.234116,163.340912 222.084366,160.644363 
	C220.751572,157.518509 218.772247,154.492523 216.460342,151.989624 
	C205.014267,139.597900 205.175842,120.441826 217.043945,108.714851 
	C228.650955,97.245857 248.265457,96.984169 260.014648,108.141541 
	C272.582733,120.076553 273.310791,138.879776 261.737701,151.644363 
	C260.183350,153.358734 258.813263,155.240173 257.186157,157.378937 
M218.651062,117.243004 
	C217.638947,119.828308 214.504257,122.036263 217.214859,125.284286 
	C220.321838,129.007294 219.754990,132.433136 217.328552,136.490250 
	C216.369278,138.094223 217.285156,141.490295 218.413452,143.459442 
	C219.312561,145.028610 221.927322,146.686752 223.611313,146.526596 
	C228.077591,146.101868 231.308701,147.707153 232.591827,151.576401 
	C233.775040,155.144287 236.047256,155.073715 238.745422,155.017731 
	C241.497452,154.960632 244.192627,155.540207 245.393677,151.569473 
	C246.521576,147.840591 249.805374,145.592285 253.862061,146.668854 
	C257.239594,147.565155 258.534576,145.675552 259.696472,143.475693 
	C260.917114,141.164642 263.299103,139.047821 260.554413,135.920959 
	C257.779114,132.759201 257.660034,128.847366 260.524200,125.661697 
	C263.291199,122.584145 260.955963,120.387299 259.773621,118.075516 
	C258.669800,115.917236 257.445648,113.934959 254.016205,114.722336 
	C249.891266,115.669388 246.444717,113.772026 245.213806,109.577271 
	C244.133179,105.894753 241.277618,106.105736 238.863556,106.450569 
	C236.778702,106.748383 233.919601,107.886101 233.093597,109.511673 
	C230.980591,113.670113 228.172470,115.242180 223.638168,114.878662 
	C222.169159,114.760895 220.590897,116.005791 218.651062,117.243004 
z"/>
<path fill="#EAF3F8" opacity="1.000000" stroke="none" 
	d="
M232.046524,166.286652 
	C239.174042,166.286850 245.809082,166.270096 252.443893,166.300552 
	C253.761703,166.306610 255.201920,166.203461 256.355316,166.693207 
	C257.208588,167.055542 258.204742,168.318527 258.172668,169.142746 
	C258.146362,169.819458 256.705963,170.994522 255.882156,171.003433 
	C244.604935,171.125412 233.325470,171.123581 222.048309,170.995728 
	C221.238312,170.986572 220.442093,169.761276 219.639465,169.101440 
	C220.463409,168.223541 221.209915,166.695175 222.125412,166.586166 
	C225.236069,166.215820 228.406403,166.346771 232.046524,166.286652 
z"/>
<path fill="#F0F6F9" opacity="1.000000" stroke="none" 
	d="
M246.602539,174.139832 
	C248.206390,174.221390 249.506439,174.002304 250.471558,174.471771 
	C251.341934,174.895187 252.416473,176.123917 252.346207,176.902267 
	C252.279526,177.640900 250.857346,178.818558 250.009964,178.837204 
	C242.719666,178.997726 235.422516,179.022324 228.133438,178.842529 
	C227.205307,178.819641 226.311966,177.387253 225.402496,176.607864 
	C226.516968,175.802658 227.603027,174.351532 228.750671,174.301086 
	C234.542603,174.046524 240.350555,174.156769 246.602539,174.139832 
z"/>
<path fill="#F0F6F9" opacity="1.000000" stroke="none" 
	d="
M235.192291,183.519379 
	C237.524826,182.592651 239.884598,182.053543 242.244354,181.514420 
	C242.548737,182.014786 242.853134,182.515152 243.157516,183.015533 
	C242.127182,184.100937 241.082779,186.083054 240.069717,186.067169 
	C238.442078,186.041611 236.835175,184.695251 235.192291,183.519379 
z"/>
<path fill="#EAEBEB" opacity="1.000000" stroke="none" 
	d="
M304.332458,251.151794 
	C306.249786,250.599945 307.789307,250.165070 309.502075,249.681274 
	C310.444733,253.988556 309.604980,257.169312 305.296326,257.944885 
	C303.790710,258.215912 301.980927,256.797241 300.310059,256.150208 
	C301.524933,254.523071 302.739777,252.895920 304.332458,251.151794 
z"/>
<path fill="#EAEBEB" opacity="1.000000" stroke="none" 
	d="
M282.596863,243.454773 
	C278.802490,244.509125 274.974731,245.164597 270.928192,245.857529 
	C270.388519,241.491974 271.836090,239.250214 275.205841,238.546234 
	C278.933594,237.767456 281.670441,239.009949 282.596863,243.454773 
z"/>
<path fill="#444444" opacity="1.000000" stroke="none" 
	d="
M146.475372,288.006500 
	C146.073929,287.180878 145.932999,286.301514 145.994385,285.221863 
	C146.196701,285.021606 146.669128,285.036011 146.807587,285.399780 
	C147.048431,286.451843 147.150803,287.140076 147.253189,287.828339 
	C147.080750,287.869812 146.908325,287.911255 146.475372,288.006500 
z"/>
<path fill="#ADADAD" opacity="1.000000" stroke="none" 
	d="
M147.464691,287.646301 
	C147.150803,287.140076 147.048431,286.451843 147.042847,285.422180 
	C147.318481,285.875305 147.497330,286.669800 147.464691,287.646301 
z"/>
<path fill="#898989" opacity="1.000000" stroke="none" 
	d="
M185.332016,286.651978 
	C185.069153,285.545593 185.035675,284.194427 185.015625,282.437164 
	C185.206512,283.489777 185.383957,284.948456 185.332016,286.651978 
z"/>
<path fill="#EAEBEB" opacity="1.000000" stroke="none" 
	d="
M209.809052,287.331421 
	C209.512390,287.622070 209.327789,287.476624 209.059418,287.150970 
	C208.954254,285.647491 208.976929,284.268250 209.049164,282.478241 
	C209.358185,283.695374 209.617615,285.323334 209.809052,287.331421 
z"/>
<path fill="#414141" opacity="1.000000" stroke="none" 
	d="
M293.546112,284.603333 
	C293.949402,285.076508 293.954346,285.294769 293.953979,285.840576 
	C293.612549,285.908661 293.276489,285.649231 292.692566,285.185486 
	C292.679108,284.770264 292.913422,284.559326 293.546112,284.603333 
z"/>
<path fill="#72BFF3" opacity="1.000000" stroke="none" 
	d="
M218.856842,116.935181 
	C220.590897,116.005791 222.169159,114.760895 223.638168,114.878662 
	C228.172470,115.242180 230.980591,113.670113 233.093597,109.511673 
	C233.919601,107.886101 236.778702,106.748383 238.863556,106.450569 
	C241.277618,106.105736 244.133179,105.894753 245.213806,109.577271 
	C246.444717,113.772026 249.891266,115.669388 254.016205,114.722336 
	C257.445648,113.934959 258.669800,115.917236 259.773621,118.075516 
	C260.955963,120.387299 263.291199,122.584145 260.524200,125.661697 
	C257.660034,128.847366 257.779114,132.759201 260.554413,135.920959 
	C263.299103,139.047821 260.917114,141.164642 259.696472,143.475693 
	C258.534576,145.675552 257.239594,147.565155 253.862061,146.668854 
	C249.805374,145.592285 246.521576,147.840591 245.393677,151.569473 
	C244.192627,155.540207 241.497452,154.960632 238.745422,155.017731 
	C236.047256,155.073715 233.775040,155.144287 232.591827,151.576401 
	C231.308701,147.707153 228.077591,146.101868 223.611313,146.526596 
	C221.927322,146.686752 219.312561,145.028610 218.413452,143.459442 
	C217.285156,141.490295 216.369278,138.094223 217.328552,136.490250 
	C219.754990,132.433136 220.321838,129.007294 217.214859,125.284286 
	C214.504257,122.036263 217.638947,119.828308 218.856842,116.935181 
M232.018066,115.606163 
	C229.245804,116.377609 226.511826,117.368820 223.690765,117.860069 
	C220.739212,118.374054 218.951263,121.340622 220.477997,124.054794 
	C223.026566,128.585602 222.990555,132.926819 220.467972,137.517426 
	C219.858582,138.626419 220.244797,140.766068 220.960358,141.960022 
	C221.491776,142.846741 223.356979,142.852646 224.521194,143.456833 
	C228.088165,145.307968 231.636505,147.201035 235.122879,149.198547 
	C236.514862,149.996094 237.730392,151.872284 239.018021,151.864685 
	C240.306915,151.857071 241.781265,150.283600 242.831039,149.093658 
	C245.703720,145.837418 248.797348,143.289322 253.500336,143.375702 
	C254.721497,143.398117 256.655151,142.792130 257.032837,141.934021 
	C257.651367,140.528625 257.293457,138.680222 257.293915,137.018646 
	C257.295044,132.816818 256.511261,128.432861 257.468018,124.465813 
	C258.374451,120.707344 257.353363,118.204506 253.250458,118.001526 
	C248.659927,117.774429 244.733398,116.295212 242.548019,111.631615 
	C242.011520,110.486717 240.102554,109.314682 238.865784,109.357101 
	C237.633652,109.399361 236.341843,110.838005 235.282532,111.875122 
	C234.282059,112.854599 233.549881,114.108116 232.018066,115.606163 
z"/>
<path fill="#F0F6F9" opacity="1.000000" stroke="none" 
	d="
M232.358871,115.423630 
	C233.549881,114.108116 234.282059,112.854599 235.282532,111.875122 
	C236.341843,110.838005 237.633652,109.399361 238.865784,109.357101 
	C240.102554,109.314682 242.011520,110.486717 242.548019,111.631615 
	C244.733398,116.295212 248.659927,117.774429 253.250458,118.001526 
	C257.353363,118.204506 258.374451,120.707344 257.468018,124.465813 
	C256.511261,128.432861 257.295044,132.816818 257.293915,137.018646 
	C257.293457,138.680222 257.651367,140.528625 257.032837,141.934021 
	C256.655151,142.792130 254.721497,143.398117 253.500336,143.375702 
	C248.797348,143.289322 245.703720,145.837418 242.831039,149.093658 
	C241.781265,150.283600 240.306915,151.857071 239.018021,151.864685 
	C237.730392,151.872284 236.514862,149.996094 235.122879,149.198547 
	C231.636505,147.201035 228.088165,145.307968 224.521194,143.456833 
	C223.356979,142.852646 221.491776,142.846741 220.960358,141.960022 
	C220.244797,140.766068 219.858582,138.626419 220.467972,137.517426 
	C222.990555,132.926819 223.026566,128.585602 220.477997,124.054794 
	C218.951263,121.340622 220.739212,118.374054 223.690765,117.860069 
	C226.511826,117.368820 229.245804,116.377609 232.358871,115.423630 
M251.898285,130.549988 
	C251.535721,128.932068 251.384003,127.229507 250.774338,125.710785 
	C248.035706,118.888466 239.821869,115.888268 233.257202,119.207321 
	C226.526138,122.610512 224.072052,130.702332 227.835495,137.084137 
	C230.433456,141.489563 235.769028,144.160019 240.474762,143.410065 
	C246.891800,142.387405 250.324448,138.761414 251.898285,130.549988 
z"/>
<path fill="#70BEF3" opacity="1.000000" stroke="none" 
	d="
M251.895996,130.948975 
	C250.324448,138.761414 246.891800,142.387405 240.474762,143.410065 
	C235.769028,144.160019 230.433456,141.489563 227.835495,137.084137 
	C224.072052,130.702332 226.526138,122.610512 233.257202,119.207321 
	C239.821869,115.888268 248.035706,118.888466 250.774338,125.710785 
	C251.384003,127.229507 251.535721,128.932068 251.895996,130.948975 
M235.671783,140.023483 
	C241.636353,141.186981 245.583176,139.578094 247.927002,135.027725 
	C249.934784,131.129776 248.888977,126.290344 245.387848,123.277634 
	C241.133530,119.616837 234.700562,120.256165 231.195801,124.688095 
	C227.221313,129.713989 228.638367,135.419373 235.671783,140.023483 
z"/>
<path fill="#F4F7F9" opacity="1.000000" stroke="none" 
	d="
M235.310318,139.911285 
	C228.638367,135.419373 227.221313,129.713989 231.195801,124.688095 
	C234.700562,120.256165 241.133530,119.616837 245.387848,123.277634 
	C248.888977,126.290344 249.934784,131.129776 247.927002,135.027725 
	C245.583176,139.578094 241.636353,141.186981 235.310318,139.911285 
z"/>
</svg>