<?xml version="1.0" encoding="UTF-8"?>
<svg version="1.1" xmlns="http://www.w3.org/2000/svg" width="260" height="260">
<path d="M0 0 C14.24701314 4.51155416 27.75132642 10.96818593 41.37304688 17.06152344 C45.90449711 19.0873703 50.43954188 21.10462266 54.98144531 23.10693359 C56.85292464 23.93492965 58.71964746 24.77365403 60.5859375 25.61328125 C61.63007812 26.07089844 62.67421875 26.52851562 63.75 27 C64.63171875 27.391875 65.5134375 27.78375 66.421875 28.1875 C71.78747904 29.87847824 75.74308212 29.00425961 80.796875 26.796875 C81.90796631 26.31677979 83.01905762 25.83668457 84.16381836 25.34204102 C85.3472583 24.81666748 86.53069824 24.29129395 87.75 23.75 C88.99262293 23.20757107 90.23554773 22.66583323 91.47875977 22.12475586 C101.0649516 17.93372419 110.57467761 13.57224148 120.03222656 9.09863281 C139.39760258 0 139.39760258 0 144 0 C143.98316162 0.87213135 143.96632324 1.7442627 143.94897461 2.64282227 C143.90752922 5.90789447 143.90680201 9.16789336 143.93286133 12.43286133 C143.9359266 13.84014479 143.92318958 15.24756116 143.89379883 16.65454102 C143.53030823 25.03844086 143.53030823 25.03844086 146.92529297 32.37744141 C149.2049983 34.12576219 151.5097007 35.57374509 154 37 C156.453125 39.265625 156.453125 39.265625 158.25 41.25 C158.85328125 41.89453125 159.4565625 42.5390625 160.078125 43.203125 C165.5629532 51.18511075 168.21395719 60.36189208 170.6875 69.625 C170.98205078 70.69234375 171.27660156 71.7596875 171.58007812 72.859375 C176.36384321 90.3604302 176.36384321 90.3604302 176 96 C176.66 96.33 177.32 96.66 178 97 C181.63736648 113.4355078 183.08434945 134.10841343 174.25 148.9375 C167.59468836 155.03820234 161.21091434 157.53271997 152.21875 157.484375 C142.23834429 155.98246929 132.47829841 149.5028257 126.375 141.625 C125.69566406 140.75875 125.01632813 139.8925 124.31640625 139 C123.09075082 137.41264187 121.86554917 135.82492826 120.64404297 134.234375 C119.68431804 132.98578172 118.72236971 131.73889457 117.75830078 130.49365234 C116.81488862 129.2743216 115.87679466 128.05085205 114.94482422 126.82275391 C111.03062459 121.76314492 107.17992384 118.08159765 101 116 C98.21078387 115.68744304 98.21078387 115.68744304 95.23510742 115.70947266 C94.100103 115.69671295 92.96509857 115.68395325 91.79570007 115.67080688 C90.57792374 115.66858124 89.3601474 115.66635559 88.10546875 115.6640625 C86.84414627 115.6574057 85.58282379 115.6507489 84.28327942 115.64389038 C81.61603674 115.63377052 78.94920175 115.62820712 76.28198242 115.62939453 C72.88256678 115.62959739 69.48399026 115.60232121 66.08477306 115.56785011 C62.82087072 115.54011384 59.55697284 115.54142865 56.29296875 115.5390625 C54.47541328 115.51750595 54.47541328 115.51750595 52.62113953 115.49551392 C44.74124159 115.53788064 39.19258533 116.40038989 33.0390625 121.68359375 C32.57242188 122.26238281 32.10578125 122.84117187 31.625 123.4375 C31.05652344 124.12972656 30.48804687 124.82195312 29.90234375 125.53515625 C28.06978983 127.90957417 26.26166326 130.30140976 24.45727539 132.69726562 C15.7567723 144.19310436 6.91021645 155.14762126 -8.21484375 157.5 C-16.25499271 157.82444485 -21.47717969 155.78548583 -27.6875 150.875 C-36.89397592 139.42911101 -37.17475454 126.30549856 -35.71582031 112.26513672 C-34.13622268 100.12171526 -31.47460714 88.19719534 -28.5625 76.3125 C-28.28656006 75.1795752 -28.01062012 74.04665039 -27.72631836 72.87939453 C-23.97013664 58.12520798 -19.00616172 45.78116353 -8 35 C-7.11453491 34.57835571 -7.11453491 34.57835571 -6.21118164 34.14819336 C-3.89153953 32.97461598 -2.59587235 32.07608845 -1 30 C0.04008105 24.9065878 -0.01898184 19.85900786 -0.0625 14.6875 C-0.04938364 13.26494132 -0.03314006 11.84240781 -0.01367188 10.41992188 C0.02707723 6.94617031 0.02505192 3.47397143 0 0 Z " fill="#2FA2AF" transform="translate(58,94)"/>
<path d="M0 0 C1.52947266 0.76763672 1.52947266 0.76763672 3.08984375 1.55078125 C7.31586172 3.59501665 11.4990743 5.4861128 15.90234375 7.11328125 C28.46151758 11.83443054 40.75516141 17.35965804 52.90234375 23.05078125 C57.33207539 25.12026978 61.80916123 27.02822982 66.33984375 28.86328125 C75.19978885 32.456014 83.95588096 36.28279031 92.71484375 40.11328125 C93.42565094 40.42346191 94.13645813 40.73364258 94.86880493 41.05322266 C96.92638865 41.95156539 98.98290818 42.85229734 101.0390625 43.75390625 C102.24006592 44.28016602 103.44106934 44.80642578 104.6784668 45.34863281 C113.87671832 49.50886846 113.87671832 49.50886846 115.08984375 52.36328125 C115.02734375 54.86328125 115.02734375 54.86328125 113.83813477 56.36450195 C111.67782524 58.15257533 109.54863883 59.18969219 106.9921875 60.34375 C106.01830078 60.78525391 105.04441406 61.22675781 104.04101562 61.68164062 C103.02587891 62.13345703 102.01074219 62.58527344 100.96484375 63.05078125 C99.94583984 63.51419922 98.92683594 63.97761719 97.87695312 64.45507812 C90.30261069 67.86328125 90.30261069 67.86328125 88.02734375 67.86328125 C88.10838601 71.92658782 88.22121809 75.98841186 88.33984375 80.05078125 C88.36240234 81.20126953 88.38496094 82.35175781 88.40820312 83.53710938 C88.44365234 84.64892578 88.47910156 85.76074219 88.515625 86.90625 C88.54180908 87.9274292 88.56799316 88.9486084 88.5949707 90.00073242 C89.08602816 93.25180454 90.28177479 95.11248858 92.02734375 97.86328125 C92.40234375 101.42578125 92.40234375 101.42578125 92.02734375 104.86328125 C91.47046875 105.48203125 90.91359375 106.10078125 90.33984375 106.73828125 C89.90671875 107.43953125 89.47359375 108.14078125 89.02734375 108.86328125 C89.82080966 112.09004261 90.76956475 114.80687829 92.02734375 117.86328125 C92.81776131 119.80976229 93.60549655 121.75728823 94.39086914 123.70581055 C94.93480239 125.04751255 95.4859425 126.38631813 96.04467773 127.72192383 C97.23241574 130.60621678 98.02734375 132.71051414 98.02734375 135.86328125 C95.8046875 136.2109375 95.8046875 136.2109375 93.02734375 135.86328125 C90.78125 133.484375 90.78125 133.484375 88.58984375 130.30078125 C86.05961049 126.67897092 83.54470908 123.23282221 80.46484375 120.05078125 C77.5260267 116.75866379 77.77972337 114.23790795 78.02734375 109.86328125 C77.28484375 108.93515625 77.28484375 108.93515625 76.52734375 107.98828125 C74.44438827 105.03742765 74.66521224 102.61581461 74.62890625 99.08203125 C75.02734375 96.86328125 75.02734375 96.86328125 76.52026367 95.07714844 C78.40739566 92.30499343 78.45043978 90.55487049 78.5390625 87.22265625 C78.57451172 86.15273437 78.60996094 85.0828125 78.64648438 83.98046875 C78.68032227 82.31371094 78.68032227 82.31371094 78.71484375 80.61328125 C78.74900391 79.48664063 78.78316406 78.36 78.81835938 77.19921875 C78.90077389 74.42067224 78.96994673 71.64243873 79.02734375 68.86328125 C78.47309723 68.74958694 77.91885071 68.63589264 77.34780884 68.51875305 C72.03702605 67.3899842 66.9371784 65.96908465 61.80078125 64.21875 C61.05003326 63.96708572 60.29928528 63.71542145 59.52578735 63.45613098 C57.14984327 62.65862044 54.77606592 61.85487782 52.40234375 61.05078125 C50.83608031 60.523664 49.26967487 59.99696852 47.703125 59.47070312 C44.619821 58.43428927 41.53716325 57.39598984 38.45507812 56.35595703 C28.58803922 53.02783177 18.71671293 49.72037817 8.77734375 46.61328125 C7.16790979 46.10826077 5.55853224 45.60306049 3.94921875 45.09765625 C3.2644043 44.88334961 2.57958984 44.66904297 1.87402344 44.44824219 C0.25362351 43.93495844 -1.36013012 43.40078996 -2.97265625 42.86328125 C-5.3056545 42.82373891 -7.63973814 42.81926393 -9.97265625 42.86328125 C-10.63265625 44.51328125 -11.29265625 46.16328125 -11.97265625 47.86328125 C-11.2976004 48.04164017 -10.62254456 48.21999908 -9.92703247 48.40376282 C-3.4550244 50.13769371 2.92345958 52.05616381 9.28515625 54.15625 C10.22429367 54.46366119 11.16343109 54.77107239 12.13102722 55.08779907 C15.13898547 56.07288122 18.14571928 57.06163646 21.15234375 58.05078125 C25.27301811 59.4036245 29.39419555 60.75492774 33.515625 62.10546875 C34.51798691 62.43414444 35.52034882 62.76282013 36.55308533 63.10145569 C42.21509852 64.95463064 47.88416715 66.78086185 53.5703125 68.55859375 C54.74513184 68.92702393 55.91995117 69.2954541 57.13037109 69.67504883 C59.21334225 70.32453147 61.29821335 70.96796335 63.38525391 71.60424805 C64.27390137 71.88179932 65.16254883 72.15935059 66.078125 72.4453125 C66.82747314 72.67452393 67.57682129 72.90373535 68.34887695 73.13989258 C70.02734375 73.86328125 70.02734375 73.86328125 71.02734375 75.86328125 C66.51210951 77.92927549 61.99545771 79.99212872 57.47753906 82.05224609 C55.94493144 82.75160694 54.4126956 83.45178317 52.88085938 84.15283203 C37.97804111 90.97194143 37.97804111 90.97194143 30.375 93.93261719 C25.68839543 95.79049329 21.08328661 97.84328636 16.46484375 99.86328125 C15.48837891 100.28867188 14.51191406 100.7140625 13.50585938 101.15234375 C12.54228516 101.57257813 11.57871094 101.9928125 10.5859375 102.42578125 C9.6460498 102.83183594 8.70616211 103.23789063 7.73779297 103.65625 C5.99281966 104.43333053 4.26308471 105.24609005 2.55517578 106.1015625 C1.79446777 106.47667969 1.03375977 106.85179688 0.25 107.23828125 C-0.72634399 107.74488281 -0.72634399 107.74488281 -1.72241211 108.26171875 C-7.83964194 109.89705067 -13.47608683 107.01741942 -18.890625 104.44140625 C-19.62912186 104.09954285 -20.36761871 103.75767944 -21.12849426 103.40545654 C-23.47649905 102.31666406 -25.81847169 101.21559173 -28.16015625 100.11328125 C-31.23528711 98.67734252 -34.31267319 97.24628674 -37.390625 95.81640625 C-38.14142334 95.46681854 -38.89222168 95.11723083 -39.66577148 94.75704956 C-44.68312786 92.43065354 -49.74378374 90.25282048 -54.86352539 88.16015625 C-58.63784348 86.58581956 -62.37206047 84.93031351 -66.10546875 83.26171875 C-66.82560654 82.93991638 -67.54574432 82.61811401 -68.28770447 82.28656006 C-69.78584059 81.61645408 -71.28382856 80.94601678 -72.78167725 80.27526855 C-85.79451762 74.44872598 -98.82800317 68.70698566 -112.02783203 63.31396484 C-124.74382242 58.04787473 -124.74382242 58.04787473 -127.09765625 53.86328125 C-126.97265625 51.86328125 -126.97265625 51.86328125 -125.38671875 49.91796875 C-122.54503887 47.49932212 -119.66569085 46.28525668 -116.22265625 44.98828125 C-106.63827436 41.21575176 -97.22991687 37.06768952 -87.81262207 32.90020752 C-79.40703195 29.18200556 -70.97084491 25.60846813 -62.40991211 22.26147461 C-57.50049121 20.26443977 -52.7255061 18.006087 -47.94140625 15.7265625 C-38.10681217 11.08051312 -28.15682569 6.58873258 -18.0078125 2.671875 C-16.03922735 1.8897308 -14.14012128 1.01196356 -12.22265625 0.11328125 C-7.71707861 -1.61963323 -4.537941 -1.73527047 0 0 Z " fill="#123047" transform="translate(135.97265625,9.13671875)"/>
<path d="M0 0 C14.24701314 4.51155416 27.75132642 10.96818593 41.37304688 17.06152344 C45.90449711 19.0873703 50.43954188 21.10462266 54.98144531 23.10693359 C56.85292464 23.93492965 58.71964746 24.77365403 60.5859375 25.61328125 C61.63007812 26.07089844 62.67421875 26.52851562 63.75 27 C64.63171875 27.391875 65.5134375 27.78375 66.421875 28.1875 C71.78747904 29.87847824 75.74308212 29.00425961 80.796875 26.796875 C81.90796631 26.31677979 83.01905762 25.83668457 84.16381836 25.34204102 C85.3472583 24.81666748 86.53069824 24.29129395 87.75 23.75 C88.99262293 23.20757107 90.23554773 22.66583323 91.47875977 22.12475586 C101.0649516 17.93372419 110.57467761 13.57224148 120.03222656 9.09863281 C139.39760258 0 139.39760258 0 144 0 C143.98316162 0.87213135 143.96632324 1.7442627 143.94897461 2.64282227 C143.90752922 5.90789447 143.90680201 9.16789336 143.93286133 12.43286133 C143.9359266 13.84014479 143.92318958 15.24756116 143.89379883 16.65454102 C143.53030823 25.03844086 143.53030823 25.03844086 146.92529297 32.37744141 C149.2049983 34.12576219 151.5097007 35.57374509 154 37 C156.453125 39.265625 156.453125 39.265625 158.25 41.25 C158.85328125 41.89453125 159.4565625 42.5390625 160.078125 43.203125 C165.5629532 51.18511075 168.21395719 60.36189208 170.6875 69.625 C170.98205078 70.69234375 171.27660156 71.7596875 171.58007812 72.859375 C176.36384321 90.3604302 176.36384321 90.3604302 176 96 C176.66 96.33 177.32 96.66 178 97 C181.63736648 113.4355078 183.08434945 134.10841343 174.25 148.9375 C167.59468836 155.03820234 161.21091434 157.53271997 152.21875 157.484375 C142.23834429 155.98246929 132.47829841 149.5028257 126.375 141.625 C125.69566406 140.75875 125.01632813 139.8925 124.31640625 139 C123.09075082 137.41264187 121.86554917 135.82492826 120.64404297 134.234375 C119.68431804 132.98578172 118.72236971 131.73889457 117.75830078 130.49365234 C116.81488862 129.2743216 115.87679466 128.05085205 114.94482422 126.82275391 C111.03062459 121.76314492 107.17992384 118.08159765 101 116 C98.21078387 115.68744304 98.21078387 115.68744304 95.23510742 115.70947266 C94.100103 115.69671295 92.96509857 115.68395325 91.79570007 115.67080688 C90.57792374 115.66858124 89.3601474 115.66635559 88.10546875 115.6640625 C86.84414627 115.6574057 85.58282379 115.6507489 84.28327942 115.64389038 C81.61603674 115.63377052 78.94920175 115.62820712 76.28198242 115.62939453 C72.88256678 115.62959739 69.48399026 115.60232121 66.08477306 115.56785011 C62.82087072 115.54011384 59.55697284 115.54142865 56.29296875 115.5390625 C54.47541328 115.51750595 54.47541328 115.51750595 52.62113953 115.49551392 C44.74124159 115.53788064 39.19258533 116.40038989 33.0390625 121.68359375 C32.57242188 122.26238281 32.10578125 122.84117187 31.625 123.4375 C31.05652344 124.12972656 30.48804687 124.82195312 29.90234375 125.53515625 C28.06978983 127.90957417 26.26166326 130.30140976 24.45727539 132.69726562 C15.7567723 144.19310436 6.91021645 155.14762126 -8.21484375 157.5 C-16.25499271 157.82444485 -21.47717969 155.78548583 -27.6875 150.875 C-36.89397592 139.42911101 -37.17475454 126.30549856 -35.71582031 112.26513672 C-34.13622268 100.12171526 -31.47460714 88.19719534 -28.5625 76.3125 C-28.28656006 75.1795752 -28.01062012 74.04665039 -27.72631836 72.87939453 C-23.97013664 58.12520798 -19.00616172 45.78116353 -8 35 C-7.11453491 34.57835571 -7.11453491 34.57835571 -6.21118164 34.14819336 C-3.89153953 32.97461598 -2.59587235 32.07608845 -1 30 C0.04008105 24.9065878 -0.01898184 19.85900786 -0.0625 14.6875 C-0.04938364 13.26494132 -0.03314006 11.84240781 -0.01367188 10.41992188 C0.02707723 6.94617031 0.02505192 3.47397143 0 0 Z M100.52148438 42.60009766 C95.48840729 44.60090631 90.8375399 44.42902846 85.46875 44.3984375 C84.35947144 44.40130768 83.25019287 44.40417786 82.1072998 44.40713501 C79.76732878 44.40917202 77.42734058 44.40366763 75.08740234 44.39111328 C71.51230679 44.37505528 67.93834177 44.39097516 64.36328125 44.41015625 C62.08593501 44.40817375 59.80858948 44.40432995 57.53125 44.3984375 C55.93259094 44.40754654 55.93259094 44.40754654 54.30163574 44.4168396 C47.15504642 44.34934164 42.96504142 43.08183759 37.0625 38.9375 C28.69097399 33.64122844 17.60015752 33.6799685 8.08984375 35.58203125 C-1.80926959 39.01769816 -8.65000186 46.28827912 -13.3125 55.4375 C-17.38045721 63.99110199 -19.97250187 72.77041839 -22 82 C-22.22848633 83.03205566 -22.45697266 84.06411133 -22.69238281 85.12744141 C-25.44755977 97.95821474 -27.45551473 110.60455279 -27.5625 123.75 C-27.57708252 124.76650635 -27.59166504 125.7830127 -27.60668945 126.83032227 C-27.50320771 134.29041522 -25.82475264 139.64560624 -21 145.375 C-17.14192438 148.50968644 -14.30777595 149.49105313 -9.1953125 149.29296875 C2.26328215 147.76379687 9.90368115 138.07635413 16.6875 129.5 C18.51079651 127.08489364 20.2492297 124.63535854 21.95703125 122.13671875 C27.44830289 114.2095484 31.6475614 110.73239814 41 108 C44.00799561 107.73257446 44.00799561 107.73257446 47.21386719 107.70947266 C48.42242371 107.69671295 49.63098022 107.68395325 50.87615967 107.67080688 C52.16999573 107.66858124 53.46383179 107.66635559 54.796875 107.6640625 C56.15439999 107.65762488 57.51192362 107.65089582 58.8694458 107.64389038 C61.71052257 107.63194615 64.55147804 107.62820645 67.39257812 107.62939453 C71.00810133 107.62959723 74.62283417 107.60233453 78.23817062 107.56785011 C81.04200714 107.54545324 83.84565753 107.5415609 86.64957428 107.54261398 C88.62246035 107.53914928 90.59528831 107.51756402 92.5680542 107.49551392 C100.23839229 107.53416354 106.14705907 108.51767687 113 112 C113.7284613 112.33585114 114.45692261 112.67170227 115.2074585 113.01773071 C117.56182404 114.30786595 117.9268125 115.56686235 119 118 C125.64499787 128.12571104 137.56341455 145.96668648 150 149 C155.81455722 149.46891591 159.87256275 149.09581117 165 146 C171.87286152 138.0907546 172.77159198 128.37330238 172.19970703 118.28515625 C170.07080584 93.92511324 165.93185364 59.81832768 147.1875 42.1875 C132.47411253 30.03909004 115.56860196 32.88587301 100.52148438 42.60009766 Z " fill="#113247" transform="translate(58,94)"/>
<path d="M0 0 C1.76150391 -0.02126953 1.76150391 -0.02126953 3.55859375 -0.04296875 C6.5625 0.1875 6.5625 0.1875 8.5625 2.1875 C8.7578125 5.2265625 8.7578125 5.2265625 8.6875 8.8125 C8.66945313 10.00101563 8.65140625 11.18953125 8.6328125 12.4140625 C8.60960938 13.32929688 8.58640625 14.24453125 8.5625 15.1875 C9.95275391 15.17009766 9.95275391 15.17009766 11.37109375 15.15234375 C12.56863281 15.14332031 13.76617187 15.13429687 15 15.125 C16.19496094 15.11339844 17.38992187 15.10179687 18.62109375 15.08984375 C21.5625 15.1875 21.5625 15.1875 22.5625 16.1875 C22.66159302 18.51910055 22.69220504 20.85379942 22.6875 23.1875 C22.69136719 25.105625 22.69136719 25.105625 22.6953125 27.0625 C22.5625 30.1875 22.5625 30.1875 21.5625 31.1875 C19.37610547 31.26008946 17.18749611 31.27123783 15 31.25 C13.20369141 31.23646484 13.20369141 31.23646484 11.37109375 31.22265625 C10.44425781 31.21105469 9.51742187 31.19945312 8.5625 31.1875 C8.58570312 32.01894531 8.60890625 32.85039062 8.6328125 33.70703125 C8.65085937 34.79371094 8.66890625 35.88039062 8.6875 37 C8.71070312 38.07894531 8.73390625 39.15789062 8.7578125 40.26953125 C8.5625 43.1875 8.5625 43.1875 6.5625 46.1875 C3.8125 46.55078125 3.8125 46.55078125 0.5625 46.5 C-1.04625 46.49419922 -1.04625 46.49419922 -2.6875 46.48828125 C-5.4375 46.1875 -5.4375 46.1875 -7.4375 44.1875 C-7.6328125 41.1484375 -7.6328125 41.1484375 -7.5625 37.5625 C-7.54445313 36.37398437 -7.52640625 35.18546875 -7.5078125 33.9609375 C-7.48460938 33.04570312 -7.46140625 32.13046875 -7.4375 31.1875 C-8.35273437 31.21070313 -9.26796875 31.23390625 -10.2109375 31.2578125 C-11.99371094 31.28488281 -11.99371094 31.28488281 -13.8125 31.3125 C-14.99585938 31.33570313 -16.17921875 31.35890625 -17.3984375 31.3828125 C-20.4375 31.1875 -20.4375 31.1875 -22.4375 29.1875 C-22.703125 26.4375 -22.703125 26.4375 -22.6875 23.1875 C-22.69265625 22.115 -22.6978125 21.0425 -22.703125 19.9375 C-22.4375 17.1875 -22.4375 17.1875 -20.4375 15.1875 C-17.3984375 14.9921875 -17.3984375 14.9921875 -13.8125 15.0625 C-12.02972656 15.08957031 -12.02972656 15.08957031 -10.2109375 15.1171875 C-9.29570313 15.14039063 -8.38046875 15.16359375 -7.4375 15.1875 C-7.44910156 14.18847656 -7.46070312 13.18945312 -7.47265625 12.16015625 C-7.48167969 10.86980469 -7.49070312 9.57945312 -7.5 8.25 C-7.51160156 6.96222656 -7.52320312 5.67445313 -7.53515625 4.34765625 C-7.36485472 -1.16330135 -4.93732906 0.02703904 0 0 Z " fill="#0C2F46" transform="translate(77.4375,145.8125)"/>
<path d="M0 0 C0.99 0 1.98 0 3 0 C3.01458252 0.73114014 3.02916504 1.46228027 3.04418945 2.21557617 C3.1188291 5.54007371 3.21543801 8.86358467 3.3125 12.1875 C3.33505859 13.33798828 3.35761719 14.48847656 3.38085938 15.67382812 C3.41630859 16.78564453 3.45175781 17.89746094 3.48828125 19.04296875 C3.51446533 20.06414795 3.54064941 21.08532715 3.56762695 22.13745117 C4.05868441 25.38852329 5.25443104 27.24920733 7 30 C7.375 33.5625 7.375 33.5625 7 37 C6.443125 37.61875 5.88625 38.2375 5.3125 38.875 C4.879375 39.57625 4.44625 40.2775 4 41 C4.79346591 44.22676136 5.742221 46.94359704 7 50 C7.79041756 51.94648104 8.5781528 53.89400698 9.36352539 55.8425293 C9.90745864 57.1842313 10.45859875 58.52303688 11.01733398 59.85864258 C12.20507199 62.74293553 13 64.84723289 13 68 C10.77734375 68.34765625 10.77734375 68.34765625 8 68 C5.75390625 65.62109375 5.75390625 65.62109375 3.5625 62.4375 C1.03226674 58.81568967 -1.48263467 55.36954096 -4.5625 52.1875 C-7.50131705 48.89538254 -7.24762038 46.3746267 -7 42 C-7.495 41.38125 -7.99 40.7625 -8.5 40.125 C-10.58295548 37.1741464 -10.36213151 34.75253336 -10.3984375 31.21875 C-10 29 -10 29 -8.50708008 27.21386719 C-6.61994809 24.44171218 -6.57690397 22.69158924 -6.48828125 19.359375 C-6.43510742 17.75449219 -6.43510742 17.75449219 -6.38085938 16.1171875 C-6.35830078 15.00601563 -6.33574219 13.89484375 -6.3125 12.75 C-6.27833984 11.62335938 -6.24417969 10.49671875 -6.20898438 9.3359375 C-6.12656986 6.55739099 -6.05739702 3.77915748 -6 1 C-5.38125 1.20625 -4.7625 1.4125 -4.125 1.625 C-3.073125 1.810625 -3.073125 1.810625 -2 2 C-1.34 1.34 -0.68 0.68 0 0 Z " fill="#1B3649" transform="translate(221,77)"/>
<path d="M0 0 C1.94524818 0.00636726 1.94524818 0.00636726 3.92979431 0.01286316 C7.34770631 0.02421977 10.76522492 0.0536052 14.1829834 0.0869751 C17.68248171 0.11787642 21.18204469 0.13141098 24.68164062 0.14648438 C31.52620143 0.17848584 38.37050361 0.22956816 45.21484375 0.29296875 C44.22484375 0.95296875 43.23484375 1.61296875 42.21484375 2.29296875 C44.85484375 2.29296875 47.49484375 2.29296875 50.21484375 2.29296875 C50.21484375 2.95296875 50.21484375 3.61296875 50.21484375 4.29296875 C51.53484375 4.62296875 52.85484375 4.95296875 54.21484375 5.29296875 C53.14347839 6.77168274 53.14347839 6.77168274 51.21484375 8.29296875 C48.15864563 8.6537323 48.15864563 8.6537323 44.35668945 8.63354492 C43.31727707 8.63420204 43.31727707 8.63420204 42.25686646 8.63487244 C39.96783207 8.6327834 37.67953133 8.60944801 35.390625 8.5859375 C33.80307923 8.58034193 32.21552827 8.57607165 30.62797546 8.57307434 C26.45048712 8.56162243 22.27331192 8.53215248 18.09594727 8.4989624 C13.83288814 8.46826886 9.5697784 8.45457055 5.30664062 8.43945312 C-3.05743533 8.40728292 -11.42125683 8.35608262 -19.78515625 8.29296875 C-19.78515625 9.28296875 -19.78515625 10.27296875 -19.78515625 11.29296875 C-20.44515625 11.29296875 -21.10515625 11.29296875 -21.78515625 11.29296875 C-21.78515625 11.95296875 -21.78515625 12.61296875 -21.78515625 13.29296875 C-23.10515625 13.62296875 -24.42515625 13.95296875 -25.78515625 14.29296875 C-25.93984375 15.19015625 -25.93984375 15.19015625 -26.09765625 16.10546875 C-26.88510953 18.6110019 -27.79419486 19.62056118 -29.78515625 21.29296875 C-30.44515625 21.62296875 -31.10515625 21.95296875 -31.78515625 22.29296875 C-31.78515625 22.95296875 -31.78515625 23.61296875 -31.78515625 24.29296875 C-32.77515625 24.29296875 -33.76515625 24.29296875 -34.78515625 24.29296875 C-34.45515625 22.64296875 -34.12515625 20.99296875 -33.78515625 19.29296875 C-34.44515625 18.96296875 -35.10515625 18.63296875 -35.78515625 18.29296875 C-34.56488843 16.53675204 -33.33351556 14.7882488 -32.09765625 13.04296875 C-31.41316406 12.0684375 -30.72867188 11.09390625 -30.0234375 10.08984375 C-22.03294129 0.10520974 -12.03454642 -0.14977974 0 0 Z " fill="#0B2D42" transform="translate(112.78515625,200.70703125)"/>
<path d="M0 0 C2.12890625 0.484375 2.12890625 0.484375 4.69140625 2.609375 C6.38310394 5.99277038 6.75086556 7.75261914 6.12890625 11.484375 C4.15498715 14.90077345 2.94352166 16.20705912 -0.80859375 17.484375 C-4.47401516 17.484375 -6.00165398 16.71616148 -8.87109375 14.484375 C-11.21278139 10.97184354 -11.36733052 9.61968144 -10.87109375 5.484375 C-8.29594262 0.33407274 -5.41261742 -0.32101191 0 0 Z " fill="#0C3047" transform="translate(201.87109375,160.515625)"/>
<path d="M0 0 C2.625 2.0625 2.625 2.0625 4 5 C4 8.93657628 3.5993618 11.15645376 1.3125 14.375 C-1.61045689 16.4289697 -3.42038372 17 -7 17 C-9.74716387 15.22960551 -11.53145922 13.93708156 -13 11 C-13.34834811 7.2378404 -13.50642431 4.85871947 -11.5625 1.5625 C-7.76401993 -0.75364638 -4.32911985 -0.90388217 0 0 Z " fill="#0B3248" transform="translate(171,161)"/>
<path d="M0 0 C2.5 1.5 2.5 1.5 4 4 C4.7152453 9.00671711 4.81148802 10.85436985 1.875 15 C-1 17 -1 17 -4 17.5625 C-7.88265681 16.83450185 -9.46228253 16.06018871 -12 13 C-12.90705593 8.70134365 -12.72920717 5.24572891 -10.5 1.4375 C-6.95397683 -0.60146332 -3.99298467 -0.78550518 0 0 Z " fill="#0B2F46" transform="translate(187,144)"/>
<path d="M0 0 C4.14182881 0.862881 5.56226471 2.18349135 8 5.625 C8.75517074 8.70049372 8.51878636 10.35664594 8 13.625 C5.45767292 16.61597304 3.8425303 17.46702557 0 18.1875 C-4.13607554 17.41198584 -5.54999553 16.01177089 -8 12.625 C-8.625 9.125 -8.625 9.125 -8 5.625 C-5.55401113 2.24378009 -4.10703441 0.85563217 0 0 Z " fill="#0A3046" transform="translate(183,176.375)"/>
<path d="M0 0 C0.33 0.66 0.66 1.32 1 2 C-1.21934164 5.32901247 -2.34683329 5.75023244 -6 7 C-6 7.66 -6 8.32 -6 9 C-6.66 9 -7.32 9 -8 9 C-8 9.99 -8 10.98 -8 12 C-9.32 12.33 -10.64 12.66 -12 13 C-12.80099855 15.40299564 -13.05992696 16.76029216 -12.4375 19.25 C-11.62394602 24.36376786 -13.41504349 29.56864599 -16 34 C-17.32 33.67 -18.64 33.34 -20 33 C-20.66 34.32 -21.32 35.64 -22 37 C-22.99 37 -23.98 37 -25 37 C-22.58966971 22.53801828 -15.08106018 11.19525444 -3.4375 2.375 C-2.29956925 1.57201573 -1.15686994 0.7754496 0 0 Z " fill="#133349" transform="translate(58,123)"/>
<path d="M0 0 C3 1 6 2 9 3 C10.80998143 8.42994428 11.49194726 13.29341182 11 19 C10.01 19.66 9.02 20.32 8 21 C7.42251197 22.96361864 7.42251197 22.96361864 7.3125 25.125 C7.1578125 27.043125 7.1578125 27.043125 7 29 C8.32 29.33 9.64 29.66 11 30 C10.34 31.32 9.68 32.64 9 34 C8.34 34 7.68 34 7 34 C4.05532141 22.78516025 1.56017279 11.49523538 0 0 Z " fill="#113247" transform="translate(220,161)"/>
<path d="M0 0 C-1.92343784 1.28229189 -3.87016011 2.53070205 -5.84375 3.734375 C-9.34589031 6.2482876 -11.80186619 8.92799512 -14.5 12.25 C-14.97630859 12.82339111 -15.45261719 13.39678223 -15.94335938 13.98754883 C-19.02967192 17.72807122 -21.99316084 21.54209181 -24.78125 25.51171875 C-26 27 -26 27 -29 29 C-29.33 27.35 -29.66 25.7 -30 24 C-30.66 24 -31.32 24 -32 24 C-31.34 22.68 -30.68 21.36 -30 20 C-29.34 20 -28.68 20 -28 20 C-27.67 18.68 -27.34 17.36 -27 16 C-26.34 16 -25.68 16 -25 16 C-24.34 15.34 -23.68 14.68 -23 14 C-23 14.66 -23 15.32 -23 16 C-22.01 16 -21.02 16 -20 16 C-20.33 15.01 -20.66 14.02 -21 13 C-20.21625 12.5875 -19.4325 12.175 -18.625 11.75 C-15.90568192 10.25065353 -15.90568192 10.25065353 -14.9375 7.875 C-14 6 -14 6 -11.875 5.25 C-11.25625 5.1675 -10.6375 5.085 -10 5 C-10 4.34 -10 3.68 -10 3 C-9.34 3 -8.68 3 -8 3 C-8 2.01 -8 1.02 -8 0 C-4.94736336 -0.98120464 -3.05263664 -0.98120464 0 0 Z M-24 11 C-23.34 11 -22.68 11 -22 11 C-22.33 11.99 -22.66 12.98 -23 14 C-23.33 13.01 -23.66 12.02 -24 11 Z " fill="#1E3A4D" transform="translate(101,209)"/>
<path d="M0 0 C7.91486333 4.3070281 14.19922076 11.41094367 17 20 C15.02 19.67 13.04 19.34 11 19 C11 18.01 11 17.02 11 16 C9.56249809 14.31201173 9.56249809 14.31201173 8 13 C7.01 13.495 7.01 13.495 6 14 C0.92101771 12.65556351 -2.94951827 9.19616176 -7 6 C-6.34 4.68 -5.68 3.36 -5 2 C-3.35 2.99 -1.7 3.98 0 5 C0 3.35 0 1.7 0 0 Z " fill="#203C50" transform="translate(206,127)"/>
<path d="M0 0 C2.71499506 2.71499506 3.7444795 5.9267505 5.125 9.4375 C5.40214844 10.11876953 5.67929688 10.80003906 5.96484375 11.50195312 C7.14842926 14.47840831 8 16.76799028 8 20 C5.7890625 20.359375 5.7890625 20.359375 3 20 C0.6484375 17.515625 0.6484375 17.515625 -1.625 14.25 C-2.38039062 13.18265625 -3.13578125 12.1153125 -3.9140625 11.015625 C-4.60242188 10.02046875 -5.29078125 9.0253125 -6 8 C-6.99298719 6.66143577 -7.98973411 5.3255718 -9 4 C-6.69 4.66 -4.38 5.32 -2 6 C-1.34 4.02 -0.68 2.04 0 0 Z " fill="#2F4555" transform="translate(226,125)"/>
<path d="M0 0 C4.66313331 1.98156242 7.84137677 5.45639581 11.46484375 8.90625 C15.3413627 12.10781264 18.86246196 13.18171301 23.8125 13.625 C24.60269531 13.69976562 25.39289063 13.77453125 26.20703125 13.8515625 C26.79871094 13.90054688 27.39039063 13.94953125 28 14 C28 14.33 28 14.66 28 15 C24.7 15 21.4 15 18 15 C18 15.66 18 16.32 18 17 C17.34 17 16.68 17 16 17 C15.67 17.66 15.34 18.32 15 19 C15 18.34 15 17.68 15 17 C13.35 17.33 11.7 17.66 10 18 C9.5978125 16.329375 9.5978125 16.329375 9.1875 14.625 C8.34190981 10.78159049 8.34190981 10.78159049 5 9 C4.33333333 7.33333333 3.66666667 5.66666667 3 4 C2.01 3.34 1.02 2.68 0 2 C0 1.34 0 0.68 0 0 Z " fill="#092E43" transform="translate(189,229)"/>
<path d="M0 0 C0.99 0.33 1.98 0.66 3 1 C2.01 2.98 1.02 4.96 0 7 C0.66 7.66 1.32 8.32 2 9 C-4.81598387 9.33278764 -9.92122066 9.24201565 -16 6 C-13.35261084 4.5393715 -12.10551666 4 -9 4 C-9 3.34 -9 2.68 -9 2 C-4.545 1.505 -4.545 1.505 0 1 C0 0.67 0 0.34 0 0 Z " fill="#213C4F" transform="translate(216,242)"/>
<path d="M0 0 C1.0161846 1.32103998 2.01133494 2.65824027 3 4 C3.7425 4.99 4.485 5.98 5.25 7 C7 10 7 10 6.75 12.375 C6.37875 13.179375 6.37875 13.179375 6 14 C6.66 14.33 7.32 14.66 8 15 C6.68 15.33 5.36 15.66 4 16 C3.1646875 14.576875 3.1646875 14.576875 2.3125 13.125 C-0.06570302 9.91121213 -1.24034426 9.04434882 -5 8 C-5.3125 5.6875 -5.3125 5.6875 -5 3 C-2.5 1.1875 -2.5 1.1875 0 0 Z " fill="#0B2F44" transform="translate(31,230)"/>
<path d="M0 0 C0.33 0 0.66 0 1 0 C1.31355324 3.24735599 1.56828245 6.49675331 1.8125 9.75 C1.90208984 10.67039063 1.99167969 11.59078125 2.08398438 12.5390625 C2.26133113 15.11525753 2.37168804 17.44315061 2 20 C-0.48828125 22.453125 -0.48828125 22.453125 -3 24 C-3 24.99 -3 25.98 -3 27 C-3.66 27 -4.32 27 -5 27 C-6.25664978 24.09399739 -7 22.20395416 -7 19 C-6.34 19 -5.68 19 -5 19 C-4.34 17.68 -3.68 16.36 -3 15 C-2.67 15.66 -2.34 16.32 -2 17 C-1.93941406 15.94039062 -1.87882812 14.88078125 -1.81640625 13.7890625 C-1.73199873 12.40102779 -1.64735083 11.01300768 -1.5625 9.625 C-1.52318359 8.92632812 -1.48386719 8.22765625 -1.44335938 7.5078125 C-1.11328125 2.2265625 -1.11328125 2.2265625 0 0 Z " fill="#143D50" transform="translate(30,210)"/>
<path d="M0 0 C0.33 0 0.66 0 1 0 C3.29612756 9.41002278 3.29612756 9.41002278 3 14 C3.66 14.33 4.32 14.66 5 15 C4.67 15.66 4.34 16.32 4 17 C3.34 17 2.68 17 2 17 C2 16.34 2 15.68 2 15 C-0.97 14.505 -0.97 14.505 -4 14 C-4 11.36 -4 8.72 -4 6 C-2.68 5.34 -1.36 4.68 0 4 C0 2.68 0 1.36 0 0 Z " fill="#253E51" transform="translate(231,176)"/>
<path d="M0 0 C0.66 0 1.32 0 2 0 C2 1.32 2 2.64 2 4 C2.99 3.67 3.98 3.34 5 3 C5.99 3 6.98 3 8 3 C8.1875 5.375 8.1875 5.375 8 8 C7.01 8.66 6.02 9.32 5 10 C4.42251197 11.96361864 4.42251197 11.96361864 4.3125 14.125 C4.1578125 16.043125 4.1578125 16.043125 4 18 C5.32 18.33 6.64 18.66 8 19 C7.34 20.32 6.68 21.64 6 23 C5.34 23 4.68 23 4 23 C1.87111461 15.32797907 0.45406625 7.95398808 0 0 Z " fill="#092F44" transform="translate(223,172)"/>
<path d="M0 0 C4.62222222 2.37037037 4.62222222 2.37037037 6.125 4.875 C6 7 6 7 3.5625 9.75 C2.2940625 10.86375 2.2940625 10.86375 1 12 C-1.64 10.02 -4.28 8.04 -7 6 C-6.34 4.68 -5.68 3.36 -5 2 C-3.35 2.99 -1.7 3.98 0 5 C0 3.35 0 1.7 0 0 Z " fill="#19394E" transform="translate(206,127)"/>
<path d="M0 0 C0.66 0.66 1.32 1.32 2 2 C1.77665046 8.45086022 -0.98012826 13.15553919 -5 18 C-5.33 18 -5.66 18 -6 18 C-5.979375 17.236875 -5.95875 16.47375 -5.9375 15.6875 C-5.87057159 12.89814214 -5.87057159 12.89814214 -7 10 C-5.92745123 7.48301368 -4.45196548 5.33194455 -3 3 C-2.34 3 -1.68 3 -1 3 C-0.67 2.01 -0.34 1.02 0 0 Z " fill="#1B3648" transform="translate(235,227)"/>
<path d="M0 0 C0 0.66 0 1.32 0 2 C0.99 2.33 1.98 2.66 3 3 C3 3.66 3 4.32 3 5 C4.32 5.66 5.64 6.32 7 7 C7 7.66 7 8.32 7 9 C2.25 11 2.25 11 0 11 C-1.98 7.37 -3.96 3.74 -6 0 C-2 -1 -2 -1 0 0 Z " fill="#0A2F47" transform="translate(215,140)"/>
<path d="M0 0 C0.33 0.66 0.66 1.32 1 2 C-1.21934164 5.32901247 -2.34683329 5.75023244 -6 7 C-6 7.66 -6 8.32 -6 9 C-6.66 9 -7.32 9 -8 9 C-8 9.99 -8 10.98 -8 12 C-9.32 12.33 -10.64 12.66 -12 13 C-12.061875 13.78375 -12.12375 14.5675 -12.1875 15.375 C-12.5896875 16.674375 -12.5896875 16.674375 -13 18 C-15.5625 19.3125 -15.5625 19.3125 -18 20 C-16.9308366 12.63465216 -9.08453676 6.61027757 -3.4375 2.375 C-2.29956925 1.57201573 -1.15686994 0.7754496 0 0 Z " fill="#3F5263" transform="translate(58,123)"/>
<path d="M0 0 C0.99 0.33 1.98 0.66 3 1 C3 1.66 3 2.32 3 3 C3.66 2.67 4.32 2.34 5 2 C7.625 2.9375 7.625 2.9375 10 4 C10.33 6.64 10.66 9.28 11 12 C5.4518577 9.4194687 0.33728166 6.94944422 -2 1 C-1.34 0.67 -0.68 0.34 0 0 Z " fill="#223B4C" transform="translate(188,235)"/>
<path d="M0 0 C0.66 0.33 1.32 0.66 2 1 C2 1.66 2 2.32 2 3 C3.65 2.67 5.3 2.34 7 2 C6.67 4.31 6.34 6.62 6 9 C1.28093812 9 -0.27037031 7.71245796 -4 5 C-3.67 4.01 -3.34 3.02 -3 2 C-2.01 2 -1.02 2 0 2 C0 1.34 0 0.68 0 0 Z " fill="#102E43" transform="translate(219,122)"/>
<path d="M0 0 C1.32 0 2.64 0 4 0 C4.66 0.99 5.32 1.98 6 3 C5.67 3.66 5.34 4.32 5 5 C4.34 4.67 3.68 4.34 3 4 C2.896875 4.5775 2.79375 5.155 2.6875 5.75 C1.89103535 8.35661158 0.80934723 9.9735311 -1 12 C-1.66 12 -2.32 12 -3 12 C-3 12.66 -3 13.32 -3 14 C-3.66 14 -4.32 14 -5 14 C-4.28269264 10.76834156 -3.18684926 7.81292078 -1.9375 4.75 C-1.57527344 3.85796875 -1.21304688 2.9659375 -0.83984375 2.046875 C-0.56269531 1.37140625 -0.28554687 0.6959375 0 0 Z " fill="#0A3148" transform="translate(229,226)"/>
<path d="M0 0 C3.38780599 4.12428556 4 6.6751288 4 12 C0 9.33333333 -4 6.66666667 -8 4 C-3.25 3 -3.25 3 -1 3 C-0.67 2.01 -0.34 1.02 0 0 Z " fill="#314758" transform="translate(167,205)"/>
<path d="M0 0 C4.98743882 1.27585644 7.65862518 3.08581807 11 7 C11.33 7.99 11.66 8.98 12 10 C12.99 10 13.98 10 15 10 C15 10.66 15 11.32 15 12 C10.44122733 11.4636738 7.55962774 9.8779969 4 7 C2.41850527 4.73237987 1.24250755 2.48501511 0 0 Z " fill="#2F4352" transform="translate(26,238)"/>
<path d="M0 0 C2.97 0.99 5.94 1.98 9 3 C5.37464179 6.17218843 1.48849722 7.42902597 -3 9 C-2.25561083 5.8614943 -1.24162641 2.97990339 0 0 Z " fill="#2A4051" transform="translate(198,81)"/>
<path d="M0 0 C-1.87604138 1.25069425 -3.78961793 2.44864655 -5.75 3.5625 C-10.13451562 6.4377728 -12.96947922 10.8038943 -16 15 C-16.93623099 12.0129773 -17.135912 11.30759032 -15.8125 8.3125 C-14 6 -14 6 -11.8125 5.1875 C-11.214375 5.125625 -10.61625 5.06375 -10 5 C-10 4.34 -10 3.68 -10 3 C-9.34 3 -8.68 3 -8 3 C-8 2.01 -8 1.02 -8 0 C-4.94736336 -0.98120464 -3.05263664 -0.98120464 0 0 Z " fill="#4D5D69" transform="translate(101,209)"/>
<path d="M0 0 C1.65 0 3.3 0 5 0 C3.96278687 3.11163938 2.84936676 4.13670871 0.54296875 6.328125 C-2.72949601 9.87398555 -5.30900128 14.00615463 -8 18 C-8.33 16.68 -8.66 15.36 -9 14 C-8.34 13.67 -7.68 13.34 -7 13 C-6.690625 12.21625 -6.38125 11.4325 -6.0625 10.625 C-4.98157048 7.95446826 -3.98452447 6.98452447 -2 5 C-0.80972016 2.40084462 -0.80972016 2.40084462 0 0 Z " fill="#3C9DA9" transform="translate(84,204)"/>
<path d="M0 0 C0.66 0 1.32 0 2 0 C2.01458252 0.89307861 2.02916504 1.78615723 2.04418945 2.70629883 C2.10527077 6.02217278 2.17942478 9.33721899 2.26245117 12.65258789 C2.29569001 14.08704628 2.32372535 15.52163513 2.34643555 16.95629883 C2.38000271 19.01960807 2.43231413 21.08172303 2.48828125 23.14453125 C2.51446533 24.38565674 2.54064941 25.62678223 2.56762695 26.90551758 C2.73288164 29.99878317 2.73288164 29.99878317 4.53198242 31.9284668 C5.01642822 32.28207275 5.50087402 32.63567871 6 33 C4.68 33.66 3.36 34.32 2 35 C0.84160957 31.52482871 0.77198782 28.3272998 0.68359375 24.70703125 C0.66281265 24.00100266 0.64203156 23.29497406 0.62062073 22.56755066 C0.55532509 20.31596449 0.49633353 18.06426338 0.4375 15.8125 C0.39429575 14.2844934 0.35068084 12.75649836 0.30664062 11.22851562 C0.19966426 7.48579438 0.09834078 3.7429577 0 0 Z " fill="#4E5B65" transform="translate(200,94)"/>
<path d="M0 0 C2.97 0.99 5.94 1.98 9 3 C9 3.99 9 4.98 9 6 C7.35 6.33 5.7 6.66 4 7 C4 6.34 4 5.68 4 5 C2.02 5 0.04 5 -2 5 C-1.34 3.35 -0.68 1.7 0 0 Z " fill="#223A4D" transform="translate(86,106)"/>
<path d="M0 0 C0.99 0.33 1.98 0.66 3 1 C3.33 4.63 3.66 8.26 4 12 C7.3 12.33 10.6 12.66 14 13 C14 13.66 14 14.32 14 15 C10.04 15 6.08 15 2 15 C1.90912109 13.62714844 1.90912109 13.62714844 1.81640625 12.2265625 C1.69072266 10.44378906 1.69072266 10.44378906 1.5625 8.625 C1.48128906 7.44164062 1.40007812 6.25828125 1.31640625 5.0390625 C1.18915064 2.08481099 1.18915064 2.08481099 0 0 Z " fill="#40A2B0" transform="translate(84,146)"/>
<path d="M0 0 C1.98 0.66 3.96 1.32 6 2 C6 2.66 6 3.32 6 4 C6.9075 3.938125 7.815 3.87625 8.75 3.8125 C12.29238832 4.01686856 13.52653696 4.52653696 16 7 C16 7.66 16 8.32 16 9 C10.00067626 7.1668733 4.55079437 4.92678249 -1 2 C-0.67 1.34 -0.34 0.68 0 0 Z " fill="#3C4D59" transform="translate(57,84)"/>
<path d="M0 0 C2.97 0.99 5.94 1.98 9 3 C8.01 4.485 8.01 4.485 7 6 C5.0546875 6.29296875 5.0546875 6.29296875 2.875 6.1875 C1.59625 6.125625 0.3175 6.06375 -1 6 C-1.33 5.01 -1.66 4.02 -2 3 C-1.34 2.01 -0.68 1.02 0 0 Z " fill="#2C4252" transform="translate(226,49)"/>
<path d="M0 0 C0.28875 0.598125 0.5775 1.19625 0.875 1.8125 C2.04742026 4.19327792 2.04742026 4.19327792 4 7 C2.35 8.32 0.7 9.64 -1 11 C-1.33 9.35 -1.66 7.7 -2 6 C-2.66 6 -3.32 6 -4 6 C-3.34 4.68 -2.68 3.36 -2 2 C-1.34 2 -0.68 2 0 2 C0 1.34 0 0.68 0 0 Z " fill="#1D3748" transform="translate(73,227)"/>
<path d="M0 0 C0.66 0 1.32 0 2 0 C0.63016497 3.16115776 0.0109362 3.9927092 -3 6 C-9.27099664 5.77603583 -9.27099664 5.77603583 -11.9375 2.9375 C-12.4634375 1.9784375 -12.4634375 1.9784375 -13 1 C-8.25 2.875 -8.25 2.875 -6 4 C-6 3.34 -6 2.68 -6 2 C-2.25 0.875 -2.25 0.875 0 2 C0 1.34 0 0.68 0 0 Z " fill="#07394E" transform="translate(205,172)"/>
<path d="M0 0 C0.99 0.99 1.98 1.98 3 3 C2.360625 3.28875 1.72125 3.5775 1.0625 3.875 C-1.15206079 4.82823451 -1.15206079 4.82823451 -2 7 C-2.66 6.34 -3.32 5.68 -4 5 C-6.5963192 4.61984012 -9.1662335 4.49404686 -11.78515625 4.34375 C-12.51605469 4.2303125 -13.24695313 4.116875 -14 4 C-14.33 3.34 -14.66 2.68 -15 2 C-4.44191344 1.81548975 -4.44191344 1.81548975 0 3 C0 2.01 0 1.02 0 0 Z " fill="#389AA9" transform="translate(175,157)"/>
<path d="M0 0 C0.33 1.32 0.66 2.64 1 4 C-0.093125 4.0825 -1.18625 4.165 -2.3125 4.25 C-6.03443943 4.62010299 -6.03443943 4.62010299 -7.8125 7.0625 C-8.4003125 8.0215625 -8.4003125 8.0215625 -9 9 C-9.66 9 -10.32 9 -11 9 C-11.33 9.66 -11.66 10.32 -12 11 C-12 10.01 -12 9.02 -12 8 C-11.34 8 -10.68 8 -10 8 C-10 6.35 -10 4.7 -10 3 C-9.46375 2.87625 -8.9275 2.7525 -8.375 2.625 C-5.5361714 1.87793984 -2.77776798 0.94696636 0 0 Z " fill="#359AA8" transform="translate(201,157)"/>
<path d="M0 0 C2.475 0.495 2.475 0.495 5 1 C4.5155542 1.37616455 4.0311084 1.7523291 3.53198242 2.13989258 C1.42350188 4.69997437 1.57177677 6.4719952 1.48828125 9.76171875 C1.45283203 10.87998047 1.41738281 11.99824219 1.38085938 13.15039062 C1.35830078 14.31763672 1.33574219 15.48488281 1.3125 16.6875 C1.27833984 17.86634766 1.24417969 19.04519531 1.20898438 20.25976562 C1.12642075 23.17308225 1.05729678 26.08609466 1 29 C0.67 29 0.34 29 0 29 C0 19.43 0 9.86 0 0 Z " fill="#2F3B47" transform="translate(58,94)"/>
<path d="M0 0 C0.66 0.33 1.32 0.66 2 1 C0.68775452 4.93673644 -0.91910327 7.22719294 -4 10 C-3.979375 9.236875 -3.95875 8.47375 -3.9375 7.6875 C-3.87057159 4.89814214 -3.87057159 4.89814214 -5 2 C-2.625 0.9375 -2.625 0.9375 0 0 Z " fill="#3A4D5B" transform="translate(233,235)"/>
<path d="M0 0 C0.33 0 0.66 0 1 0 C0.56367091 6.88940671 -0.08389845 13.35751464 -2 20 C-2.33 20 -2.66 20 -3 20 C-3.9765625 13.9453125 -3.9765625 13.9453125 -4 12 C-3.34 11.34 -2.68 10.68 -2 10 C-1.5769311 7.83000806 -1.5769311 7.83000806 -1.4375 5.4375 C-1.09722222 1.09722222 -1.09722222 1.09722222 0 0 Z " fill="#033045" transform="translate(32,192)"/>
<path d="M0 0 C0.66 0.33 1.32 0.66 2 1 C1 4 1 4 -1.3125 5.75 C-4 7 -4 7 -6.3125 6.6875 C-6.869375 6.460625 -7.42625 6.23375 -8 6 C-7.34 5.67 -6.68 5.34 -6 5 C-6 4.01 -6 3.02 -6 2 C-4.02 2 -2.04 2 0 2 C0 1.34 0 0.68 0 0 Z " fill="#2C3F4D" transform="translate(226,243)"/>
<path d="M0 0 C3.23861303 1.44424635 5.61969163 3.25772247 8.25 5.625 C8.95640625 6.25664062 9.6628125 6.88828125 10.390625 7.5390625 C10.92171875 8.02117187 11.4528125 8.50328125 12 9 C11.34 9.66 10.68 10.32 10 11 C7.625 10.3125 7.625 10.3125 5 9 C3.875 6.5 3.875 6.5 3 4 C2.01 3.34 1.02 2.68 0 2 C0 1.34 0 0.68 0 0 Z " fill="#04374C" transform="translate(189,229)"/>
<path d="M0 0 C2.125 0.9375 2.125 0.9375 4 2 C3.814375 2.61875 3.62875 3.2375 3.4375 3.875 C2.76313824 6.04160178 2.76313824 6.04160178 4 8 C3.01 8.33 2.02 8.66 1 9 C-1.62386487 5.93882432 -2 5.26826873 -2 1 C-1.34 0.67 -0.68 0.34 0 0 Z " fill="#273F52" transform="translate(182,225)"/>
<path d="M0 0 C1.61949011 2.57213134 2.04408751 3.67669159 1.625 6.75 C1.41875 7.4925 1.2125 8.235 1 9 C-0.65 8.67 -2.3 8.34 -4 8 C-3.67 6.02 -3.34 4.04 -3 2 C-2.34 2 -1.68 2 -1 2 C-0.67 1.34 -0.34 0.68 0 0 Z " fill="#223E50" transform="translate(229,168)"/>
<path d="M0 0 C-3.62535821 3.17218843 -7.51150278 4.42902597 -12 6 C-12 5.01 -12 4.02 -12 3 C-11.34 3 -10.68 3 -10 3 C-10 2.34 -10 1.68 -10 1 C-3.71428571 -1.42857143 -3.71428571 -1.42857143 0 0 Z " fill="#3D4D59" transform="translate(237,71)"/>
<path d="M0 0 C0.66 0.33 1.32 0.66 2 1 C1.67 2.32 1.34 3.64 1 5 C-1.31 5.33 -3.62 5.66 -6 6 C-6.33 5.01 -6.66 4.02 -7 3 C-4.69631264 1.93347808 -2.35981813 0.93578995 0 0 Z " fill="#2C4151" transform="translate(140,120)"/>
<path d="M0 0 C0.66 0 1.32 0 2 0 C2 0.66 2 1.32 2 2 C2.969375 2.12375 3.93875 2.2475 4.9375 2.375 C6.4534375 2.684375 6.4534375 2.684375 8 3 C8.33 3.66 8.66 4.32 9 5 C8.34 5 7.68 5 7 5 C7.33 5.99 7.66 6.98 8 8 C7.01 8 6.02 8 5 8 C3.61328125 6.50390625 3.61328125 6.50390625 2.3125 4.5625 C1.87550781 3.92441406 1.43851563 3.28632813 0.98828125 2.62890625 C0 1 0 1 0 0 Z " fill="#334858" transform="translate(171,217)"/>
<path d="M0 0 C0.66 0.33 1.32 0.66 2 1 C2.625 3.5625 2.625 3.5625 3 6 C2.34 6 1.68 6 1 6 C0.67 6.99 0.34 7.98 0 9 C-0.99 8.67 -1.98 8.34 -3 8 C-2.01 5.36 -1.02 2.72 0 0 Z " fill="#359DA8" transform="translate(43,153)"/>
<path d="M0 0 C0.99 0 1.98 0 3 0 C2.67 2.64 2.34 5.28 2 8 C0.68 8.33 -0.64 8.66 -2 9 C-1.34 6.03 -0.68 3.06 0 0 Z " fill="#384A59" transform="translate(35,151)"/>
<path d="M0 0 C5.47200293 4.05788982 8.30076284 7.73776979 11 14 C7.24623848 12.74874616 6.75926711 11.4347596 5 8 C5 7.34 5 6.68 5 6 C4.360625 5.7525 3.72125 5.505 3.0625 5.25 C1 4 1 4 0.37109375 1.921875 C0.24863281 1.28765625 0.12617188 0.6534375 0 0 Z " fill="#3C98A5" transform="translate(204,136)"/>
<path d="M0 0 C2.31 0 4.62 0 7 0 C7.33 1.65 7.66 3.3 8 5 C5.6875 5.3125 5.6875 5.3125 3 5 C1.1875 2.5 1.1875 2.5 0 0 Z " fill="#4A5861" transform="translate(226,140)"/>
<path d="M0 0 C2.31 0.33 4.62 0.66 7 1 C7 1.66 7 2.32 7 3 C6.195625 3.12375 5.39125 3.2475 4.5625 3.375 C3.2940625 3.684375 3.2940625 3.684375 2 4 C1.67 4.66 1.34 5.32 1 6 C0.34 5.34 -0.32 4.68 -1 4 C-0.625 1.875 -0.625 1.875 0 0 Z " fill="#273C4C" transform="translate(68,99)"/>
<path d="M0 0 C-0.125 1.875 -0.125 1.875 -1 4 C-3.9375 5.3125 -3.9375 5.3125 -7 6 C-7.66 5.67 -8.32 5.34 -9 5 C-8.67 4.01 -8.34 3.02 -8 2 C-5.10441559 0.5522078 -3.25811062 0 0 0 Z " fill="#253C4D" transform="translate(102,20)"/>
<path d="M0 0 C3 1 3 1 4 3 C4.99 3.33 5.98 3.66 7 4 C7 4.99 7 5.98 7 7 C7.99 7.33 8.98 7.66 10 8 C9.01 9.485 9.01 9.485 8 11 C6.66375099 9.35653302 5.33107149 7.71016314 4 6.0625 C3.2575 5.14597656 2.515 4.22945312 1.75 3.28515625 C0 1 0 1 0 0 Z " fill="#409CAC" transform="translate(182,218)"/>
<path d="M0 0 C3 0 3 0 4.75 1.5 C6.62783409 5.25566817 5.74906333 7.91420002 5 12 C4.67 12 4.34 12 4 12 C3.67 9.36 3.34 6.72 3 4 C2.01 3.67 1.02 3.34 0 3 C0 2.01 0 1.02 0 0 Z " fill="#072F43" transform="translate(31,167)"/>
<path d="M0 0 C0.66 0.33 1.32 0.66 2 1 C2 1.66 2 2.32 2 3 C-0.75 4.625 -0.75 4.625 -4 6 C-6.375 5.1875 -6.375 5.1875 -8 4 C-6.66666667 3.33333333 -5.33333333 2.66666667 -4 2 C-3.29875 1.608125 -2.5975 1.21625 -1.875 0.8125 C-1.25625 0.544375 -0.6375 0.27625 0 0 Z " fill="#334653" transform="translate(148,107)"/>
<path d="M0 0 C0.99 0.33 1.98 0.66 3 1 C4.6875 4.5625 4.6875 4.5625 6 8 C3.03 7.505 3.03 7.505 0 7 C0 4.69 0 2.38 0 0 Z " fill="#2F4455" transform="translate(217,139)"/>
<path d="M0 0 C-6.33333333 4.22222222 -6.33333333 4.22222222 -10.8125 3.625 C-11.534375 3.41875 -12.25625 3.2125 -13 3 C-13 2.67 -13 2.34 -13 2 C-11.02 2 -9.04 2 -7 2 C-7 1.34 -7 0.68 -7 0 C-3.86650268 -1.04449911 -3.01031744 -0.93423645 0 0 Z " fill="#4C5A65" transform="translate(140,114)"/>
<path d="M0 0 C-0.33 1.32 -0.66 2.64 -1 4 C-3.97 3.01 -6.94 2.02 -10 1 C-10 0.67 -10 0.34 -10 0 C-6.30458414 -0.95024979 -3.69541586 -0.95024979 0 0 Z " fill="#2F4352" transform="translate(115,107)"/>
<path d="M0 0 C1.76462683 3.08809695 2 4.23312136 2 8 C2.66 8.33 3.32 8.66 4 9 C3.01 9.33 2.02 9.66 1 10 C-0.32 8.02 -1.64 6.04 -3 4 C-2.67 3.34 -2.34 2.68 -2 2 C-1.34 2.33 -0.68 2.66 0 3 C0 2.01 0 1.02 0 0 Z " fill="#389EAA" transform="translate(36,230)"/>
<path d="M0 0 C2.31 0.33 4.62 0.66 7 1 C7 1.66 7 2.32 7 3 C7.66 3.33 8.32 3.66 9 4 C4.82412255 5.39195915 2.86525224 3.82323219 -1 2 C-0.67 1.34 -0.34 0.68 0 0 Z " fill="#334654" transform="translate(36,75)"/>
<path d="M0 0 C0 0.66 0 1.32 0 2 C-3.3 3.32 -6.6 4.64 -10 6 C-10 5.01 -10 4.02 -10 3 C-3.375 0 -3.375 0 0 0 Z " fill="#394D59" transform="translate(162,103)"/>
<path d="M0 0 C-0.66 1.65 -1.32 3.3 -2 5 C-4.31 4.67 -6.62 4.34 -9 4 C-3 0 -3 0 0 0 Z " fill="#3E4F5D" transform="translate(156,114)"/>
<path d="M0 0 C0.33 0.66 0.66 1.32 1 2 C-1.33343353 5.50015029 -3.16917814 6.40382422 -7 8 C-7.66 7.67 -8.32 7.34 -9 7 C-6.03 4.69 -3.06 2.38 0 0 Z " fill="#465562" transform="translate(58,123)"/>
<path d="M0 0 C1.65 0 3.3 0 5 0 C4.67 1.32 4.34 2.64 4 4 C3.34 4 2.68 4 2 4 C1.67 4.66 1.34 5.32 1 6 C0.4465236 3.92446352 0 2.15634036 0 0 Z " fill="#183147" transform="translate(178,222)"/>
<path d="M0 0 C0.99 0.33 1.98 0.66 3 1 C2.6875 2.875 2.6875 2.875 2 5 C1.01 5.66 0.02 6.32 -1 7 C-1.66 6.01 -2.32 5.02 -3 4 C-2.01 4 -1.02 4 0 4 C-0.33 3.01 -0.66 2.02 -1 1 C-0.67 0.67 -0.34 0.34 0 0 Z " fill="#2A4252" transform="translate(81,221)"/>
<path d="M0 0 C1.22589844 0.01353516 1.22589844 0.01353516 2.4765625 0.02734375 C3.41628906 0.04474609 3.41628906 0.04474609 4.375 0.0625 C4.375 0.3925 4.375 0.7225 4.375 1.0625 C2.7353125 1.495625 2.7353125 1.495625 1.0625 1.9375 C-2.66513845 2.88143204 -2.66513845 2.88143204 -5.625 5.0625 C-5.955 3.7425 -6.285 2.4225 -6.625 1.0625 C-4.21954362 -0.14022819 -2.67503047 -0.03821472 0 0 Z " fill="#3DA4B2" transform="translate(180.625,175.9375)"/>
<path d="M0 0 C0.33 0 0.66 0 1 0 C1.1546875 1.8871875 1.1546875 1.8871875 1.3125 3.8125 C1.64858808 6.60499657 1.80025876 7.74433121 3.5625 10 C4.036875 10.33 4.51125 10.66 5 11 C3.02 11.99 3.02 11.99 1 13 C-0.00496852 9.98509443 -0.10335303 7.95818308 -0.0625 4.8125 C-0.05347656 3.91144531 -0.04445312 3.01039062 -0.03515625 2.08203125 C-0.02355469 1.39496094 -0.01195312 0.70789063 0 0 Z " fill="#41515C" transform="translate(201,116)"/>
<path d="M0 0 C2 2 2 2 2.25 5 C2 8 2 8 0 10 C-0.95024979 6.30458414 -0.95024979 3.69541586 0 0 Z " fill="#415062" transform="translate(26,185)"/>
<path d="M0 0 C1.65 0.33 3.3 0.66 5 1 C2.9927092 4.0109362 2.16115776 4.63016497 -1 6 C-0.67 4.02 -0.34 2.04 0 0 Z " fill="#1E3646" transform="translate(38,144)"/>
<path d="M0 0 C1.98 0.66 3.96 1.32 6 2 C4.1875 3.5625 4.1875 3.5625 2 5 C1.01 4.67 0.02 4.34 -1 4 C-0.67 2.68 -0.34 1.36 0 0 Z " fill="#4D5860" transform="translate(201,82)"/>
<path d="M0 0 C0.66 0 1.32 0 2 0 C1.67 2.64 1.34 5.28 1 8 C0.01 7.34 -0.98 6.68 -2 6 C-1.125 1.125 -1.125 1.125 0 0 Z " fill="#46535E" transform="translate(11,58)"/>
<path d="M0 0 C0.99 0.33 1.98 0.66 3 1 C3 2.65 3 4.3 3 6 C0.525 5.01 0.525 5.01 -2 4 C-2 3.34 -2 2.68 -2 2 C-1.34 2 -0.68 2 0 2 C0 1.34 0 0.68 0 0 Z " fill="#2B4353" transform="translate(196,241)"/>
<path d="M0 0 C0.99 0.33 1.98 0.66 3 1 C3 1.99 3 2.98 3 4 C3.66 4 4.32 4 5 4 C4.67 4.66 4.34 5.32 4 6 C2.125 5.75 2.125 5.75 0 5 C-1.25 2.9375 -1.25 2.9375 -2 1 C-1.34 0.67 -0.68 0.34 0 0 Z " fill="#092D41" transform="translate(57,240)"/>
<path d="M0 0 C2.97 0.495 2.97 0.495 6 1 C5.01 2.485 5.01 2.485 4 4 C2.35 3.67 0.7 3.34 -1 3 C-0.67 2.01 -0.34 1.02 0 0 Z " fill="#344556" transform="translate(213,44)"/>
<path d="M0 0 C2.97 0.495 2.97 0.495 6 1 C5.67 2.32 5.34 3.64 5 5 C3.0625 4.1875 3.0625 4.1875 1 3 C0.67 2.01 0.34 1.02 0 0 Z " fill="#2B3E4D" transform="translate(176,28)"/>
<path d="M0 0 C0.99 1.32 1.98 2.64 3 4 C1.35 5.32 -0.3 6.64 -2 8 C-1.125 2.25 -1.125 2.25 0 0 Z " fill="#1C3241" transform="translate(69,235)"/>
<path d="M0 0 C-0.33 0.66 -0.66 1.32 -1 2 C-3.0625 2.625 -3.0625 2.625 -5 3 C-5.99 1.68 -6.98 0.36 -8 -1 C-4.37673261 -2.2077558 -3.35853631 -1.54311128 0 0 Z " fill="#35A6B5" transform="translate(199,230)"/>
<path d="M0 0 C-0.66 1.98 -1.32 3.96 -2 6 C-5 6 -5 6 -7 5 C-2.25 0 -2.25 0 0 0 Z " fill="#08394E" transform="translate(78,221)"/>
<path d="M0 0 C0.66 0 1.32 0 2 0 C1.5206753 4.31392226 0.2542015 6.16569547 -3 9 C-2.44271087 5.65626525 -1.64826111 2.96687001 0 0 Z " fill="#40515B" transform="translate(87,215)"/>
<path d="M0 0 C0.33 0 0.66 0 1 0 C1.75 3.25 1.75 3.25 2 7 C0.0625 9.4375 0.0625 9.4375 -2 11 C-2.66 10.67 -3.32 10.34 -4 10 C-3.525625 9.46375 -3.05125 8.9275 -2.5625 8.375 C-0.71813924 5.57157164 -0.37543153 3.30379742 0 0 Z " fill="#3EA3AF" transform="translate(208,166)"/>
<path d="M0 0 C0.33 0.66 0.66 1.32 1 2 C0.34 2 -0.32 2 -1 2 C-1 2.99 -1 3.98 -1 5 C-2.32 5.33 -3.64 5.66 -5 6 C-4.75 4.125 -4.75 4.125 -4 2 C-1.9375 0.75 -1.9375 0.75 0 0 Z " fill="#2C4253" transform="translate(51,130)"/>
<path d="M0 0 C2.64 0.33 5.28 0.66 8 1 C8 1.66 8 2.32 8 3 C7.236875 2.979375 6.47375 2.95875 5.6875 2.9375 C2.89814214 2.87057159 2.89814214 2.87057159 0 4 C0 2.68 0 1.36 0 0 Z " fill="#1F3447" transform="translate(124,123)"/>
<path d="M0 0 C2.31 0.66 4.62 1.32 7 2 C6.67 2.66 6.34 3.32 6 4 C3.69 3.67 1.38 3.34 -1 3 C-0.67 2.01 -0.34 1.02 0 0 Z " fill="#314554" transform="translate(106,115)"/>
<path d="M0 0 C2.475 0.99 2.475 0.99 5 2 C5 2.99 5 3.98 5 5 C3.02 4.34 1.04 3.68 -1 3 C-0.67 2.01 -0.34 1.02 0 0 Z " fill="#314352" transform="translate(79,93)"/>
<path d="M0 0 C0.66 0.33 1.32 0.66 2 1 C2 1.66 2 2.32 2 3 C2.99 3 3.98 3 5 3 C5 3.66 5 4.32 5 5 C1.31245243 4.50168276 -0.60490662 3.89932357 -3 1 C-2.01 0.67 -1.02 0.34 0 0 Z " fill="#394A55" transform="translate(36,245)"/>
<path d="M0 0 C1.98 0 3.96 0 6 0 C6.33 0.66 6.66 1.32 7 2 C5.35 2.66 3.7 3.32 2 4 C1.34 2.68 0.68 1.36 0 0 Z " fill="#253A48" transform="translate(55,245)"/>
<path d="M0 0 C1.98 0.99 1.98 0.99 4 2 C3.67 3.65 3.34 5.3 3 7 C1.5 5.75 1.5 5.75 0 4 C0 2.68 0 1.36 0 0 Z " fill="#112E42" transform="translate(226,238)"/>
<path d="M0 0 C0.99 0 1.98 0 3 0 C2.67 2.31 2.34 4.62 2 7 C1.01 6.67 0.02 6.34 -1 6 C-0.67 4.02 -0.34 2.04 0 0 Z " fill="#2A4254" transform="translate(13,57)"/>
<path d="M0 0 C0 0.66 0 1.32 0 2 C0.66 2.33 1.32 2.66 2 3 C-0.3125 3.625 -0.3125 3.625 -3 4 C-3.99 3.34 -4.98 2.68 -6 2 C-3 0 -3 0 0 0 Z " fill="#253F4E" transform="translate(151,53)"/>
<path d="M0 0 C-0.33 1.32 -0.66 2.64 -1 4 C-3.97 3.505 -3.97 3.505 -7 3 C-2.5 0 -2.5 0 0 0 Z " fill="#344852" transform="translate(74,32)"/>
</svg>
